<svg version="1.1" id="Layer_1" xmlns="http://www.w3.org/2000/svg" xmlns:xlink="http://www.w3.org/1999/xlink" x="0px" y="0px"
	 width="100%" viewBox="0 0 486 424" enable-background="new 0 0 486 424" xml:space="preserve">
<path fill="#000000" opacity="1.000000" stroke="none" 
	d="
M1.000000,150.000000 
	C1.000000,100.000015 1.000000,50.500031 1.000000,1.000033 
	C162.999939,1.000022 324.999878,1.000022 486.999878,1.000011 
	C486.999908,142.333237 486.999908,283.666473 486.999939,424.999756 
	C325.000153,424.999847 163.000305,424.999847 1.000230,424.999939 
	C1.000000,333.500000 1.000000,242.000000 1.000000,150.000000 
M350.120819,24.729023 
	C338.571320,17.027132 326.860321,15.991678 314.239014,23.975603 
	C310.165710,28.036221 305.664551,31.755943 302.103790,36.224934 
	C293.363281,47.194866 290.961151,60.400127 289.061493,74.012436 
	C285.790680,74.363235 282.519867,74.714035 278.969055,74.255165 
	C277.605011,62.280193 273.391876,51.264286 265.458252,42.329674 
	C261.333008,37.683975 255.200851,34.820393 249.261307,30.784210 
	C239.986908,27.589561 231.143692,28.013376 222.246170,33.982323 
	C210.358521,42.281521 203.098602,53.712658 200.038925,67.734222 
	C198.657104,74.066628 198.103561,80.579765 196.315582,87.035316 
	C193.604813,87.354729 190.894043,87.674133 187.985779,87.410713 
	C187.677002,86.930420 187.368225,86.450127 187.004166,85.128510 
	C184.506409,69.433586 177.972565,56.169430 163.879211,47.015728 
	C163.616241,46.949738 163.350388,46.898972 162.672043,46.254276 
	C150.310699,40.300407 138.628220,40.729282 127.251480,50.209480 
	C124.271729,53.202240 120.901443,55.900814 118.384453,59.242168 
	C110.404457,69.835808 106.320709,81.866737 106.103615,95.733269 
	C106.104294,96.879059 106.104973,98.024857 105.309723,99.333351 
	C101.840294,99.972389 98.370872,100.611427 94.074356,101.126686 
	C92.127342,101.427528 90.189049,101.811844 88.231949,102.016052 
	C72.070435,103.702454 58.440380,119.248466 57.151478,134.201950 
	C56.128078,146.075150 56.409828,158.060837 56.075516,170.933868 
	C56.053013,234.984573 55.908386,299.035980 56.282223,363.084381 
	C56.307201,367.363739 59.203758,373.029572 62.612801,375.589111 
	C69.375725,380.666779 77.429344,384.025421 85.289330,388.756683 
	C90.804947,391.579163 96.536217,393.738129 102.850830,392.924103 
	C108.944664,392.138550 114.975197,390.871155 121.062782,390.026093 
	C136.014114,387.950562 151.006577,386.159973 165.935867,383.941010 
	C177.604233,382.206696 189.171417,379.791748 200.839798,378.057678 
	C215.768188,375.839111 230.780777,374.185669 245.706619,371.951630 
	C264.431122,369.149017 283.095154,365.944763 301.802826,363.026337 
	C317.321411,360.605347 332.863007,358.331116 348.398804,356.021454 
	C366.501587,353.330170 384.596985,350.584808 402.718201,348.022827 
	C420.179260,345.554138 430.116577,335.729858 430.049683,316.680878 
	C429.859589,262.561218 429.979828,208.440384 430.009247,154.320023 
	C430.013123,147.183792 430.199738,140.047653 430.895081,132.476562 
	C430.593140,130.552750 430.056946,128.632248 430.029724,126.704544 
	C429.910431,118.256317 430.195984,109.795349 429.846619,101.359215 
	C429.427887,91.247559 425.041443,83.200211 415.822784,77.387383 
	C415.231567,77.234756 414.640350,77.082130 414.000000,76.998474 
	C414.000000,76.998474 414.048767,76.926979 413.716644,76.314774 
	C409.939575,74.290977 406.198425,72.196442 402.378357,70.257309 
	C392.917480,65.454788 384.036621,58.455936 371.887695,61.426540 
	C371.277527,59.910198 370.667358,58.393860 370.002228,56.077518 
	C368.988892,52.690533 368.476990,49.040257 366.863831,45.968246 
	C362.786041,38.202728 359.053070,30.025530 350.592224,25.388651 
	C350.592224,25.388651 350.374451,25.306627 350.120819,24.729023 
z"/>
<path fill="#EFEEEE" opacity="1.000000" stroke="none" 
	d="
M430.301758,132.911469 
	C430.199738,140.047653 430.013123,147.183792 430.009247,154.320023 
	C429.979828,208.440384 429.859589,262.561218 430.049683,316.680878 
	C430.116577,335.729858 420.179260,345.554138 402.718201,348.022827 
	C384.596985,350.584808 366.501587,353.330170 348.398804,356.021454 
	C332.863007,358.331116 317.321411,360.605347 301.802826,363.026337 
	C283.095154,365.944763 264.431122,369.149017 245.706619,371.951630 
	C230.780777,374.185669 215.768188,375.839111 200.839798,378.057678 
	C189.171417,379.791748 177.604233,382.206696 165.935867,383.941010 
	C151.006577,386.159973 136.014114,387.950562 121.062782,390.026093 
	C114.975197,390.871155 108.944664,392.138550 102.850830,392.924103 
	C96.536217,393.738129 90.804947,391.579163 85.131516,388.043579 
	C83.625008,382.962494 81.381325,378.649048 81.110817,374.215271 
	C80.516808,364.479309 80.914261,354.682465 80.919022,344.910461 
	C80.945518,290.431793 80.975609,235.953094 81.335426,181.370728 
	C82.126785,181.260559 82.587196,181.254089 83.129440,181.379944 
	C83.211281,181.512299 83.645752,181.516907 83.645752,181.516907 
	C83.645752,181.516907 83.898438,181.155701 84.313644,181.058075 
	C100.214439,178.781464 115.700745,176.607544 131.185486,174.422531 
	C167.266678,169.331192 203.342682,164.202805 239.428955,159.147705 
	C288.701416,152.245407 337.977631,145.369263 387.260742,138.543289 
	C401.592834,136.558228 415.953949,134.782928 430.301758,132.911469 
M106.002167,317.500000 
	C106.002068,328.828949 106.014877,340.157898 105.996132,351.486816 
	C105.987465,356.724854 109.993301,363.075226 116.623711,362.050293 
	C122.569893,361.131134 128.615768,360.858398 134.563232,359.945740 
	C153.428192,357.050812 172.264496,353.969543 191.118484,351.002380 
	C199.915222,349.618042 208.734375,348.375732 217.529678,346.982666 
	C223.271179,346.073303 228.966507,344.855133 234.720642,344.046509 
	C245.649231,342.510712 256.628387,341.326324 267.544312,339.710785 
	C284.016663,337.272919 300.441772,334.517242 316.908386,332.038940 
	C327.012787,330.518219 337.183838,329.433136 347.276947,327.846771 
	C360.842316,325.714691 374.299744,322.762390 387.921173,321.166382 
	C397.496246,320.044495 403.221954,317.079865 403.096680,304.298523 
	C402.794647,273.478058 403.014954,242.652496 403.020782,211.828995 
	C403.024536,192.036850 403.021515,172.244720 403.021515,151.679932 
	C395.673828,152.510361 388.734253,153.088181 381.897583,154.264114 
	C380.714691,154.467575 379.149139,157.208817 379.156281,158.771439 
	C379.193939,166.996124 379.919708,175.222336 379.796265,183.438889 
	C379.773071,184.981537 377.165009,187.503143 375.430145,187.819321 
	C369.194794,188.955750 362.603485,188.554855 356.565216,190.237076 
	C350.847076,191.830078 350.904755,189.344223 350.956696,185.318863 
	C351.069641,176.565598 350.991577,167.809875 350.991577,158.608719 
	C343.129303,159.459091 335.977234,160.138336 328.866302,161.116516 
	C327.936798,161.244385 326.512573,162.907715 326.513184,163.859039 
	C326.518585,171.953812 326.862244,180.047501 326.979767,188.143311 
	C327.065948,194.082672 325.060944,195.806885 319.064026,196.086807 
	C314.015961,196.322464 308.936035,196.733337 303.969940,197.623337 
	C299.032288,198.508224 298.016266,198.037659 298.003021,193.095581 
	C297.979065,184.152451 297.996246,175.209229 297.996246,165.705917 
	C289.998016,166.518860 282.533356,167.132965 275.137115,168.214813 
	C274.226288,168.348022 273.095520,170.965164 273.062561,172.453293 
	C272.874481,180.946121 273.095947,189.448257 272.889832,197.940231 
	C272.856689,199.305832 271.559326,201.629959 270.530243,201.822662 
	C263.528351,203.133728 256.442230,203.995758 249.382355,204.995865 
	C245.405914,205.559158 243.682663,204.254257 243.900864,199.830627 
	C244.269806,192.351257 243.808975,184.833633 244.073608,177.345398 
	C244.223450,173.105560 242.022842,172.651260 238.783127,173.046371 
	C233.464096,173.695038 228.157318,174.704681 222.823090,174.878616 
	C219.169540,174.997757 217.726227,175.967392 217.942230,179.746506 
	C218.441895,188.488312 218.774521,197.244659 218.879822,205.998672 
	C218.895706,207.319626 217.487625,209.667511 216.464920,209.831024 
	C208.446381,211.113068 200.371078,212.084702 192.283936,212.836029 
	C191.281128,212.929214 189.217529,211.229828 189.150238,210.256989 
	C188.569916,201.866333 188.358688,193.450699 187.977219,185.045242 
	C187.900879,183.363190 187.568222,181.692780 187.346085,179.957031 
	C185.163666,180.443817 183.952713,180.821564 182.714157,180.971817 
	C176.902359,181.676849 171.056076,182.157364 165.287979,183.114914 
	C164.071091,183.316925 162.202972,185.190506 162.209290,186.284805 
	C162.261536,195.343384 162.813599,204.399506 162.836624,213.457352 
	C162.839630,214.634583 160.887558,216.445114 159.504166,216.872879 
	C156.133179,217.915298 152.588776,218.541550 149.069473,218.925797 
	C143.783630,219.502914 138.459549,219.729874 132.310196,220.165298 
	C132.310196,208.921158 132.310196,198.565353 132.310196,188.033203 
	C124.040627,188.743607 116.566200,189.294754 109.115402,190.072235 
	C106.288826,190.367188 105.926353,192.397018 105.932739,195.038742 
	C106.030502,235.525635 106.001602,276.012848 106.002167,317.500000 
z"/>
<path fill="#D4240C" opacity="1.000000" stroke="none" 
	d="
M430.598419,132.694016 
	C415.953949,134.782928 401.592834,136.558228 387.260742,138.543289 
	C337.977631,145.369263 288.701416,152.245407 239.428955,159.147705 
	C203.342682,164.202805 167.266678,169.331192 131.185486,174.422531 
	C115.700745,176.607544 100.214439,178.781464 84.091721,180.988052 
	C83.454605,181.015671 83.047600,181.247620 83.047600,181.247620 
	C82.587196,181.254089 82.126785,181.260559 81.408203,181.213196 
	C81.150024,181.159348 81.098145,180.816193 81.082588,180.587433 
	C81.067032,180.358658 80.968529,179.910629 80.973129,179.447617 
	C80.979958,170.502838 81.571823,161.970978 80.856544,153.550156 
	C79.537567,138.022003 94.141876,117.741692 111.968391,115.794479 
	C117.711502,115.167160 123.413582,114.173180 129.147781,113.453316 
	C141.444870,111.909538 153.750656,110.435020 166.088196,109.358093 
	C165.155991,115.732689 165.019516,122.049477 158.710876,125.915085 
	C154.738419,129.578293 151.383514,133.250778 151.530151,139.002197 
	C149.550919,141.338959 149.012970,143.434280 151.868118,145.357346 
	C151.918549,145.533188 152.032059,145.880981 152.006348,146.234283 
	C152.584091,147.449768 153.187531,148.311935 153.843948,149.355652 
	C153.896912,149.537186 154.023804,149.893494 154.099854,150.142914 
	C154.448776,150.594208 154.721680,150.796082 154.997437,150.998688 
	C155.000305,150.999390 155.000504,151.005493 155.017548,151.359436 
	C161.978561,160.207199 172.853394,160.682007 180.653687,154.489655 
	C188.398956,148.340973 189.266388,135.025726 183.233322,128.595566 
	C184.816895,120.483467 186.397156,112.749146 188.407303,105.022903 
	C194.720627,104.241570 200.608566,103.484116 206.486633,102.656532 
	C221.994522,100.473160 237.488586,98.184570 253.021988,96.203110 
	C254.233139,96.048607 255.707565,97.957977 257.072906,99.321396 
	C255.630905,103.112572 254.175629,106.490463 252.391388,109.913879 
	C244.984604,114.327705 241.871582,120.587929 243.011292,129.289871 
	C243.670654,131.117905 244.349442,132.542786 245.019501,133.978668 
	C245.010773,133.989685 245.037018,133.972992 245.151016,134.300659 
	C247.082321,136.704330 248.509750,139.500565 250.784332,140.731903 
	C260.731750,146.116974 274.018829,143.357498 278.124786,130.404922 
	C280.149963,124.016441 277.535736,118.687820 275.888153,112.611954 
	C276.993408,107.070312 278.076874,101.939690 279.400024,96.569824 
	C280.011078,91.028801 284.385559,91.580315 287.729309,91.067215 
	C299.140350,89.316170 310.572723,87.685837 322.023987,86.220757 
	C331.512634,85.006760 341.039459,84.091232 350.606934,83.414993 
	C348.292969,88.220367 350.674316,94.322372 345.387512,97.892815 
	C343.244354,99.490448 341.320770,100.929970 339.661957,102.628090 
	C335.514923,106.873375 334.418610,112.117249 335.133636,118.101410 
	C335.492340,118.553154 335.771606,118.752815 336.034943,118.957977 
	C336.019043,118.963486 336.057770,118.939995 336.031494,119.315323 
	C336.645996,120.808250 337.286743,121.925858 337.962219,123.025963 
	C337.996948,123.008469 337.952271,123.072105 337.990936,123.423080 
	C339.654510,125.790634 340.871063,128.677963 342.978241,129.666183 
	C350.316437,133.107651 357.794708,133.335495 364.511078,127.907135 
	C370.854950,122.779831 372.676697,115.381119 370.148499,106.894859 
	C369.493805,104.697289 369.333191,102.352516 368.945496,99.661819 
	C370.016052,92.819511 371.086761,86.390739 372.530182,79.924896 
	C386.469177,76.830261 400.061371,74.132706 414.048767,76.926979 
	C414.048767,76.926979 414.000000,76.998474 414.192505,77.222580 
	C414.965210,77.610146 415.545349,77.773613 416.125519,77.937073 
	C425.041443,83.200211 429.427887,91.247559 429.846619,101.359215 
	C430.195984,109.795349 429.910431,118.256317 430.029724,126.704544 
	C430.056946,128.632248 430.593140,130.552750 430.598419,132.694016 
z"/>
<path fill="#C1C1C1" opacity="1.000000" stroke="none" 
	d="
M81.077248,181.316879 
	C80.975609,235.953094 80.945518,290.431793 80.919022,344.910461 
	C80.914261,354.682465 80.516808,364.479309 81.110817,374.215271 
	C81.381325,378.649048 83.625008,382.962494 84.961609,387.712524 
	C77.429344,384.025421 69.375725,380.666779 62.612801,375.589111 
	C59.203758,373.029572 56.307201,367.363739 56.282223,363.084381 
	C55.908386,299.035980 56.053013,234.984573 56.475063,170.374283 
	C59.495312,170.664810 62.116013,171.514908 64.802719,172.323334 
	C64.868713,172.281677 64.712975,172.292282 64.839966,172.540192 
	C65.310402,172.901566 65.653847,173.015015 66.088272,173.226990 
	C66.179268,173.325500 66.445229,173.290726 66.666153,173.565063 
	C68.928589,174.889572 70.970100,175.939743 73.121872,177.097702 
	C73.232124,177.205505 73.540359,177.215286 73.757652,177.478241 
	C74.592476,178.011002 75.210014,178.280777 75.980881,178.718185 
	C76.558754,179.018921 76.983292,179.152054 77.603951,179.542267 
	C78.202751,179.930176 78.605431,180.060974 79.095474,180.289230 
	C79.182838,180.386688 79.440872,180.342697 79.664337,180.562469 
	C80.291252,180.793549 80.694702,180.804871 81.098145,180.816193 
	C81.098145,180.816193 81.150024,181.159348 81.077248,181.316879 
z"/>
<path fill="#922115" opacity="1.000000" stroke="none" 
	d="
M66.445229,173.290726 
	C66.445229,173.290726 66.179268,173.325500 65.959686,172.976547 
	C65.397720,172.515823 65.055351,172.404053 64.712975,172.292282 
	C64.712975,172.292282 64.868713,172.281677 64.757736,171.953979 
	C63.048420,168.699005 57.643822,169.532959 57.985130,164.552032 
	C58.739998,153.535858 58.304729,142.337875 60.160633,131.523941 
	C62.269539,119.235847 70.719757,111.063965 82.078812,106.131012 
	C86.269234,104.311226 90.622467,102.866341 94.901443,101.250458 
	C98.370872,100.611427 101.840294,99.972389 105.775879,99.571960 
	C107.944023,99.886269 109.711334,100.296120 111.336418,99.978455 
	C117.595139,98.755028 123.808357,97.298889 130.455200,95.963974 
	C142.168228,94.333000 153.464630,92.667580 164.951431,91.349586 
	C165.445526,97.442062 165.749191,103.187103 166.052872,108.932144 
	C153.750656,110.435020 141.444870,111.909538 129.147781,113.453316 
	C123.413582,114.173180 117.711502,115.167160 111.968391,115.794479 
	C94.141876,117.741692 79.537567,138.022003 80.856544,153.550156 
	C81.571823,161.970978 80.979958,170.502838 80.586731,179.539490 
	C79.944107,180.177155 79.692490,180.259933 79.440872,180.342697 
	C79.440872,180.342697 79.182838,180.386688 78.916794,180.008820 
	C78.236443,179.515701 77.822136,179.400436 77.407829,179.285172 
	C76.983292,179.152054 76.558754,179.018921 75.869873,178.353302 
	C74.917137,177.618973 74.228752,177.417130 73.540359,177.215271 
	C73.540359,177.215286 73.232124,177.205505 73.074860,176.735229 
	C70.760147,175.273560 68.602684,174.282135 66.445229,173.290726 
z"/>
<path fill="#878382" opacity="1.000000" stroke="none" 
	d="
M279.160339,96.809059 
	C278.076874,101.939690 276.993408,107.070312 275.625122,112.812180 
	C273.581696,117.142433 271.582947,120.769058 270.109955,124.597946 
	C265.851013,135.668716 261.990540,138.138763 249.952789,136.648926 
	C249.258102,135.697647 248.625000,135.073990 247.971756,134.333282 
	C247.951614,134.216248 247.549637,134.007431 247.287598,133.700500 
	C243.932495,127.986755 244.377274,123.404045 247.919586,118.482750 
	C249.827209,115.832527 251.139465,112.753761 252.720352,109.868355 
	C254.175629,106.490463 255.630905,103.112572 257.327667,99.043381 
	C259.070557,91.521118 259.728912,84.720177 256.921387,77.650833 
	C256.688171,76.171104 256.352386,75.092758 256.075653,73.999474 
	C254.328323,67.095879 251.764130,60.663395 246.254379,55.756207 
	C242.091339,52.048473 237.415588,51.852974 233.148560,55.430328 
	C224.553024,62.636559 221.189255,72.134651 220.727600,83.192642 
	C213.122253,87.523972 205.076233,86.812401 197.174210,87.010910 
	C198.103561,80.579765 198.657104,74.066628 200.038925,67.734222 
	C203.098602,53.712658 210.358521,42.281521 222.816437,34.206802 
	C224.170624,34.355610 225.038452,34.473042 225.725571,34.174522 
	C232.941818,31.039509 240.266388,29.767107 247.961884,32.391243 
	C248.436905,32.553219 249.295273,31.590961 249.975281,31.151779 
	C255.200851,34.820393 261.333008,37.683975 265.458252,42.329674 
	C273.391876,51.264286 277.605011,62.280193 279.018402,75.113792 
	C279.098602,82.917969 279.129456,89.863510 279.160339,96.809059 
M267.860779,56.765602 
	C266.604889,54.609207 265.495636,52.349934 264.067352,50.314529 
	C258.400879,42.239590 251.116760,36.514839 241.025543,35.179478 
	C237.405197,34.700397 234.655685,36.124741 234.029434,39.893578 
	C233.397690,43.695599 235.247574,45.763050 239.228210,46.179890 
	C245.964890,46.885330 250.800629,50.536930 254.557709,56.123829 
	C263.379730,69.242455 264.345978,83.837807 262.472168,98.789497 
	C261.389526,107.428223 258.336365,115.522621 252.470474,122.349068 
	C250.128281,125.074799 249.059708,128.516357 252.660751,131.047714 
	C256.232269,133.558319 259.324219,131.958679 261.562347,128.651871 
	C263.516113,125.765244 265.606445,122.908310 267.097229,119.781204 
	C276.909943,99.197586 276.642639,78.384727 267.860779,56.765602 
z"/>
<path fill="#888483" opacity="1.000000" stroke="none" 
	d="
M345.727661,97.852425 
	C350.674316,94.322372 348.292969,88.220367 350.759521,82.963974 
	C350.488220,76.297134 352.994995,69.939049 347.878479,64.566528 
	C345.104828,58.087112 342.720306,51.700378 339.188293,46.028133 
	C336.966858,42.460606 330.783661,40.490044 325.869751,44.506409 
	C317.726929,51.161942 314.003754,59.707432 313.674255,70.117111 
	C305.925995,73.996826 297.922546,73.974609 289.919983,73.957916 
	C290.961151,60.400127 293.363281,47.194866 302.103790,36.224934 
	C305.664551,31.755943 310.165710,28.036221 314.796204,24.185410 
	C316.571625,24.105787 317.866241,23.991385 318.995880,23.498755 
	C326.821838,20.085896 334.676392,20.225273 342.630646,23.011993 
	C345.168396,23.901073 347.790802,24.548582 350.374451,25.306627 
	C350.374451,25.306627 350.592224,25.388651 350.455811,25.820690 
	C354.844879,32.620884 359.734436,38.769440 363.758270,45.440201 
	C366.142181,49.392258 367.159546,54.168617 369.040070,59.245850 
	C369.575897,57.998245 369.816559,57.437878 370.057220,56.877518 
	C370.667358,58.393860 371.277527,59.910198 371.939484,62.124123 
	C372.046661,68.535126 372.102081,74.248543 372.157471,79.961960 
	C371.086761,86.390739 370.016052,92.819511 368.690552,99.888771 
	C367.102722,104.021805 365.769745,107.514351 364.155884,111.111191 
	C362.603668,113.870270 361.332245,116.525078 360.042358,119.377571 
	C360.023865,119.575256 359.876495,119.944000 359.539551,119.998566 
	C356.465668,122.383453 353.728790,124.713783 350.668579,127.188385 
	C345.288910,128.604080 341.761322,125.428734 337.952271,123.072105 
	C337.952271,123.072105 337.996948,123.008469 337.979645,122.658707 
	C337.630096,121.135017 337.297882,119.961090 336.994904,118.404709 
	C337.074921,117.003822 337.125671,115.985382 337.453064,114.795006 
	C340.368500,111.282776 343.133331,108.029205 345.541077,104.529953 
	C346.030518,103.818642 345.174713,102.181679 344.974823,100.636520 
	C345.249634,99.485214 345.488647,98.668823 345.727661,97.852425 
M346.043457,44.461681 
	C356.633057,59.322281 358.201447,75.901825 353.882355,92.926949 
	C352.097168,99.963936 347.747467,106.397911 344.230591,112.926491 
	C342.644501,115.870865 342.491791,118.210564 344.947693,120.506683 
	C347.638977,123.022789 350.167297,121.898796 352.487427,119.927551 
	C353.482025,119.082512 354.237518,117.939880 355.036194,116.883011 
	C362.069855,107.575920 365.193054,96.875984 366.428589,85.438385 
	C368.361267,67.546921 364.917969,51.028564 353.913055,36.532162 
	C348.778015,29.767941 341.904846,25.639294 333.234192,24.960777 
	C329.636810,24.679266 326.612579,25.915230 326.245941,29.687260 
	C325.858917,33.668858 328.575562,35.609482 332.433105,35.989223 
	C338.061310,36.543270 342.514404,39.088238 346.043457,44.461681 
z"/>
<path fill="#898584" opacity="1.000000" stroke="none" 
	d="
M166.088196,109.358093 
	C165.749191,103.187103 165.445526,97.442062 165.050903,90.963943 
	C161.939117,83.505852 158.918289,76.780853 156.149918,69.847542 
	C155.349411,65.296326 149.557114,62.821728 144.735245,64.654785 
	C136.610443,67.743469 127.075935,83.182350 128.063400,91.827629 
	C128.115173,92.280891 129.216385,92.614281 129.898071,93.365784 
	C129.990921,94.461899 130.014740,95.195702 130.038544,95.929512 
	C123.808357,97.298889 117.595139,98.755028 111.336418,99.978455 
	C109.711334,100.296120 107.944023,99.886269 106.173843,99.490616 
	C106.104973,98.024857 106.104294,96.879059 106.631699,95.377228 
	C107.769104,93.987396 108.867973,92.974236 108.912529,91.916664 
	C109.392426,80.525261 113.032471,70.270699 119.930748,61.250393 
	C122.698982,57.630600 125.960106,54.387745 129.339996,50.911991 
	C138.202744,45.111816 147.270782,43.165768 157.268509,46.519501 
	C159.044785,47.115356 161.135895,46.772713 163.081619,46.863434 
	C163.350388,46.898972 163.616241,46.949738 163.997009,47.540604 
	C164.846359,49.300549 165.296646,50.900974 166.352966,51.714180 
	C176.929352,59.856346 182.465088,70.870422 185.077377,83.665939 
	C185.254318,84.532661 186.376740,85.206360 187.059448,85.969833 
	C187.368225,86.450127 187.677002,86.930420 187.882141,88.059250 
	C187.844803,94.143463 187.911118,99.579147 187.977417,105.014824 
	C186.397156,112.749146 184.816895,120.483467 182.936554,128.800720 
	C180.889282,133.379761 179.437927,137.543198 177.302109,141.319519 
	C175.564957,144.390915 173.185013,147.167557 170.735809,149.737213 
	C169.584579,150.945068 167.600098,151.358780 165.588654,152.040955 
	C162.424774,150.977295 159.665436,150.005035 157.160858,148.817444 
	C156.257004,144.723068 155.098419,140.844040 153.977325,136.606705 
	C155.277863,134.368530 156.727356,132.582916 157.741425,130.577164 
	C158.473694,129.128784 158.627014,127.387695 159.038544,125.777153 
	C165.019516,122.049477 165.155991,115.732689 166.088196,109.358093 
M181.269257,116.650421 
	C181.549881,108.746689 182.273026,100.828064 182.007782,92.942696 
	C181.606476,81.011963 177.588989,70.138428 170.061279,60.811363 
	C164.422394,53.824612 157.245743,48.987782 147.931824,49.241627 
	C145.934677,49.296059 142.607559,52.223152 142.460052,54.035816 
	C142.310562,55.872723 145.198547,59.524059 147.002457,59.689144 
	C156.214935,60.532219 161.773575,66.253136 165.007919,73.667084 
	C168.134445,80.833878 170.241272,88.730865 171.183990,96.502655 
	C172.888626,110.555901 170.204926,123.921883 161.161087,135.417496 
	C158.745773,138.487595 157.536758,141.691315 161.122955,144.576843 
	C164.902023,147.617554 167.574020,145.090698 169.873917,142.179962 
	C175.643738,134.877701 179.336441,126.613914 181.269257,116.650421 
z"/>
<path fill="#912317" opacity="1.000000" stroke="none" 
	d="
M289.490723,73.985176 
	C297.922546,73.974609 305.925995,73.996826 314.090759,70.116402 
	C320.059753,69.380730 325.256317,68.785164 330.419861,67.978638 
	C336.222839,67.072243 341.996094,65.975418 347.782257,64.961426 
	C352.994995,69.939049 350.488220,76.297134 350.701965,82.592461 
	C341.039459,84.091232 331.512634,85.006760 322.023987,86.220757 
	C310.572723,87.685837 299.140350,89.316170 287.729309,91.067215 
	C284.385559,91.580315 280.011078,91.028801 279.400024,96.569824 
	C279.129456,89.863510 279.098602,82.917969 279.158386,75.518631 
	C282.519867,74.714035 285.790680,74.363235 289.490723,73.985176 
z"/>
<path fill="#912317" opacity="1.000000" stroke="none" 
	d="
M188.407318,105.022903 
	C187.911118,99.579147 187.844803,94.143463 187.980881,88.350662 
	C190.894043,87.674133 193.604813,87.354729 196.744904,87.023117 
	C205.076233,86.812401 213.122253,87.523972 221.144836,83.178360 
	C233.546341,81.361435 245.196243,79.703369 256.846161,78.045303 
	C259.728912,84.720177 259.070557,91.521118 257.314392,98.630096 
	C255.707565,97.957977 254.233139,96.048607 253.021988,96.203110 
	C237.488586,98.184570 221.994522,100.473160 206.486633,102.656532 
	C200.608566,103.484116 194.720627,104.241570 188.407318,105.022903 
z"/>
<path fill="#912317" opacity="1.000000" stroke="none" 
	d="
M372.530182,79.924896 
	C372.102081,74.248543 372.046661,68.535126 372.135925,62.442574 
	C384.036621,58.455936 392.917480,65.454788 402.378357,70.257309 
	C406.198425,72.196442 409.939575,74.290977 413.882690,76.620880 
	C400.061371,74.132706 386.469177,76.830261 372.530182,79.924896 
z"/>
<path fill="#8B3931" opacity="1.000000" stroke="none" 
	d="
M94.487900,101.188568 
	C90.622467,102.866341 86.269234,104.311226 82.078812,106.131012 
	C70.719757,111.063965 62.269539,119.235847 60.160633,131.523941 
	C58.304729,142.337875 58.739998,153.535858 57.985130,164.552032 
	C57.643822,169.532959 63.048420,168.699005 64.691742,171.995636 
	C62.116013,171.514908 59.495312,170.664810 56.493359,169.905640 
	C56.409828,158.060837 56.128078,146.075150 57.151478,134.201950 
	C58.440380,119.248466 72.070435,103.702454 88.231949,102.016052 
	C90.189049,101.811844 92.127342,101.427528 94.487900,101.188568 
z"/>
<path fill="#949492" opacity="1.000000" stroke="none" 
	d="
M128.996887,50.973320 
	C125.960106,54.387745 122.698982,57.630600 119.930748,61.250393 
	C113.032471,70.270699 109.392426,80.525261 108.912529,91.916664 
	C108.867973,92.974236 107.769104,93.987396 106.711166,95.107246 
	C106.320709,81.866737 110.404457,69.835808 118.384453,59.242168 
	C120.901443,55.900814 124.271729,53.202240 127.800758,50.193581 
	C128.565659,50.442890 128.781265,50.708103 128.996887,50.973320 
z"/>
<path fill="#949492" opacity="1.000000" stroke="none" 
	d="
M187.031799,85.549171 
	C186.376740,85.206360 185.254318,84.532661 185.077377,83.665939 
	C182.465088,70.870422 176.929352,59.856346 166.352966,51.714180 
	C165.296646,50.900974 164.846359,49.300549 164.157593,47.665047 
	C177.972565,56.169430 184.506409,69.433586 187.031799,85.549171 
z"/>
<path fill="#939391" opacity="1.000000" stroke="none" 
	d="
M370.029724,56.477516 
	C369.816559,57.437878 369.575897,57.998245 369.040070,59.245850 
	C367.159546,54.168617 366.142181,49.392258 363.758270,45.440201 
	C359.734436,38.769440 354.844879,32.620884 350.514099,25.921394 
	C359.053070,30.025530 362.786041,38.202728 366.863831,45.968246 
	C368.476990,49.040257 368.988892,52.690533 370.029724,56.477516 
z"/>
<path fill="#A1A19F" opacity="1.000000" stroke="none" 
	d="
M129.339996,50.911987 
	C128.781265,50.708103 128.565659,50.442890 128.115662,50.066101 
	C138.628220,40.729282 150.310699,40.300407 162.876831,46.558853 
	C161.135895,46.772713 159.044785,47.115356 157.268509,46.519501 
	C147.270782,43.165768 138.202744,45.111816 129.339996,50.911987 
z"/>
<path fill="#939391" opacity="1.000000" stroke="none" 
	d="
M350.247620,25.017826 
	C347.790802,24.548582 345.168396,23.901073 342.630646,23.011993 
	C334.676392,20.225273 326.821838,20.085896 318.995880,23.498755 
	C317.866241,23.991385 316.571625,24.105787 315.143250,24.135847 
	C326.860321,15.991678 338.571320,17.027132 350.247620,25.017826 
z"/>
<path fill="#989796" opacity="1.000000" stroke="none" 
	d="
M249.618286,30.967993 
	C249.295273,31.590961 248.436905,32.553219 247.961884,32.391243 
	C240.266388,29.767107 232.941818,31.039509 225.725571,34.174522 
	C225.038452,34.473042 224.170624,34.355610 223.170212,34.175217 
	C231.143692,28.013376 239.986908,27.589561 249.618286,30.967993 
z"/>
<path fill="#912317" opacity="1.000000" stroke="none" 
	d="
M415.974152,77.662231 
	C415.545349,77.773613 414.965210,77.610146 414.217102,77.188095 
	C414.640350,77.082130 415.231567,77.234756 415.974152,77.662231 
z"/>
<path fill="#000000" opacity="1.000000" stroke="none" 
	d="
M106.002174,317.000000 
	C106.001602,276.012848 106.030502,235.525635 105.932739,195.038742 
	C105.926353,192.397018 106.288826,190.367188 109.115402,190.072235 
	C116.566200,189.294754 124.040627,188.743607 132.310196,188.033203 
	C132.310196,198.565353 132.310196,208.921158 132.310196,220.165298 
	C138.459549,219.729874 143.783630,219.502914 149.069473,218.925797 
	C152.588776,218.541550 156.133179,217.915298 159.504166,216.872879 
	C160.887558,216.445114 162.839630,214.634583 162.836624,213.457352 
	C162.813599,204.399506 162.261536,195.343384 162.209290,186.284805 
	C162.202972,185.190506 164.071091,183.316925 165.287979,183.114914 
	C171.056076,182.157364 176.902359,181.676849 182.714157,180.971817 
	C183.952713,180.821564 185.163666,180.443817 187.346085,179.957031 
	C187.568222,181.692780 187.900879,183.363190 187.977219,185.045242 
	C188.358688,193.450699 188.569916,201.866333 189.150238,210.256989 
	C189.217529,211.229828 191.281128,212.929214 192.283936,212.836029 
	C200.371078,212.084702 208.446381,211.113068 216.464920,209.831024 
	C217.487625,209.667511 218.895706,207.319626 218.879822,205.998672 
	C218.774521,197.244659 218.441895,188.488312 217.942230,179.746506 
	C217.726227,175.967392 219.169540,174.997757 222.823090,174.878616 
	C228.157318,174.704681 233.464096,173.695038 238.783127,173.046371 
	C242.022842,172.651260 244.223450,173.105560 244.073608,177.345398 
	C243.808975,184.833633 244.269806,192.351257 243.900864,199.830627 
	C243.682663,204.254257 245.405914,205.559158 249.382355,204.995865 
	C256.442230,203.995758 263.528351,203.133728 270.530243,201.822662 
	C271.559326,201.629959 272.856689,199.305832 272.889832,197.940231 
	C273.095947,189.448257 272.874481,180.946121 273.062561,172.453293 
	C273.095520,170.965164 274.226288,168.348022 275.137115,168.214813 
	C282.533356,167.132965 289.998016,166.518860 297.996246,165.705917 
	C297.996246,175.209229 297.979065,184.152451 298.003021,193.095581 
	C298.016266,198.037659 299.032288,198.508224 303.969940,197.623337 
	C308.936035,196.733337 314.015961,196.322464 319.064026,196.086807 
	C325.060944,195.806885 327.065948,194.082672 326.979767,188.143311 
	C326.862244,180.047501 326.518585,171.953812 326.513184,163.859039 
	C326.512573,162.907715 327.936798,161.244385 328.866302,161.116516 
	C335.977234,160.138336 343.129303,159.459091 350.991577,158.608719 
	C350.991577,167.809875 351.069641,176.565598 350.956696,185.318863 
	C350.904755,189.344223 350.847076,191.830078 356.565216,190.237076 
	C362.603485,188.554855 369.194794,188.955750 375.430145,187.819321 
	C377.165009,187.503143 379.773071,184.981537 379.796265,183.438889 
	C379.919708,175.222336 379.193939,166.996124 379.156281,158.771439 
	C379.149139,157.208817 380.714691,154.467575 381.897583,154.264114 
	C388.734253,153.088181 395.673828,152.510361 403.021515,151.679932 
	C403.021515,172.244720 403.024536,192.036850 403.020782,211.828995 
	C403.014954,242.652496 402.794647,273.478058 403.096680,304.298523 
	C403.221954,317.079865 397.496246,320.044495 387.921173,321.166382 
	C374.299744,322.762390 360.842316,325.714691 347.276947,327.846771 
	C337.183838,329.433136 327.012787,330.518219 316.908386,332.038940 
	C300.441772,334.517242 284.016663,337.272919 267.544312,339.710785 
	C256.628387,341.326324 245.649231,342.510712 234.720642,344.046509 
	C228.966507,344.855133 223.271179,346.073303 217.529678,346.982666 
	C208.734375,348.375732 199.915222,349.618042 191.118484,351.002380 
	C172.264496,353.969543 153.428192,357.050812 134.563232,359.945740 
	C128.615768,360.858398 122.569893,361.131134 116.623711,362.050293 
	C109.993301,363.075226 105.987465,356.724854 105.996132,351.486816 
	C106.014877,340.157898 106.002068,328.828949 106.002174,317.000000 
M314.991241,202.996170 
	C314.991241,202.996170 314.973114,202.928101 314.432373,203.037857 
	C314.269165,203.348740 314.105988,203.659622 314.004242,203.986801 
	C314.004242,203.986801 313.951477,203.950089 313.279907,204.169708 
	C312.832306,205.440857 312.384705,206.712021 311.995270,208.000259 
	C311.995270,208.000259 311.974518,207.943268 311.215485,208.378418 
	C311.462891,213.954773 311.710297,219.531113 312.215637,225.741730 
	C314.161774,227.444229 316.107910,229.146729 318.944580,230.978333 
	C320.597290,230.973022 322.325592,231.281555 323.888855,230.904953 
	C329.057953,229.659714 335.104523,231.058365 339.001831,226.003250 
	C339.001831,226.003250 339.048676,226.065918 339.724670,225.820343 
	C346.283203,218.768951 343.662231,210.778305 342.041870,202.973312 
	C342.041870,202.973312 342.122162,202.944504 341.939697,202.461502 
	C341.644562,202.365631 341.349457,202.269760 340.556732,202.015274 
	C340.386597,201.978531 340.216431,201.941788 339.979828,201.455383 
	C339.979828,201.455383 339.817810,201.030685 339.963867,200.150726 
	C331.813019,198.674988 323.646301,196.978836 315.437317,202.042297 
	C315.269928,202.346054 315.102539,202.649811 314.991241,202.996170 
M316.423676,291.065369 
	C316.253937,291.350067 316.084198,291.634766 315.311554,292.168060 
	C314.837646,293.076721 314.363739,293.985352 313.180267,295.289978 
	C311.832764,301.604675 310.626129,307.913727 314.011475,314.690826 
	C314.654266,315.480011 315.297089,316.269165 316.092499,317.545074 
	C316.374207,317.718872 316.655914,317.892639 317.303894,318.777649 
	C321.944824,318.848663 326.671692,319.522552 331.210266,318.875519 
	C343.888611,317.068146 348.247437,310.434540 345.013000,294.184204 
	C343.140869,291.452179 341.808716,287.178406 339.288788,286.295837 
	C333.277679,284.190491 326.900024,285.538025 320.266083,287.980896 
	C319.482513,288.627960 318.698914,289.275055 317.426941,290.063446 
	C317.255585,290.345642 317.084198,290.627808 316.423676,291.065369 
M270.996490,236.009918 
	C270.996490,236.009918 270.932190,236.025528 271.066162,236.565430 
	C271.387665,236.658386 271.709137,236.751343 272.901215,236.980835 
	C276.381073,236.975998 280.033356,237.642227 283.298767,236.802979 
	C287.766388,235.654755 292.427216,235.497360 296.236298,231.257339 
	C300.356781,226.670731 299.960968,222.025970 299.977234,216.165543 
	C298.664764,213.087753 297.352295,210.009979 296.006531,206.997269 
	C296.006531,206.997269 296.067902,206.957520 295.865509,206.330933 
	C294.932739,205.864899 294.000000,205.398880 293.032928,204.976273 
	C293.032928,204.976273 293.084076,204.956009 292.912598,204.471970 
	C292.617676,204.380981 292.322754,204.289978 291.519226,204.059189 
	C291.348511,204.101212 291.177795,204.143250 290.145905,204.028976 
	C288.112732,204.082626 286.079529,204.136292 283.255280,204.292252 
	C278.631836,205.752029 272.971954,204.782303 269.998230,209.996292 
	C269.998230,209.996292 269.971832,209.939484 269.355560,210.174438 
	C268.883179,211.106415 268.410797,212.038391 267.992523,213.002777 
	C267.992523,213.002777 267.965210,212.945938 267.249512,213.321121 
	C266.992615,214.243149 266.566010,215.154297 266.506073,216.088974 
	C266.083069,222.686111 264.024628,229.602646 270.001129,235.002502 
	C270.001129,235.002502 269.950195,235.021698 270.076416,235.545120 
	C270.375854,235.720886 270.675262,235.896637 270.996490,236.009918 
M295.017792,323.018250 
	C295.017792,323.018250 295.040710,323.086578 295.665161,323.006714 
	C295.721863,322.341614 295.778534,321.676544 295.987762,320.337921 
	C297.628967,318.606964 300.512848,316.983185 300.673096,315.124542 
	C301.114258,310.008057 300.604309,304.772186 300.034790,299.631836 
	C299.889038,298.316315 298.128021,297.179749 296.997192,295.189514 
	C296.238373,294.460388 295.588867,293.291901 294.703461,293.071716 
	C287.656433,291.319183 280.760834,292.703278 274.723175,296.104980 
	C271.771576,297.767944 270.186676,301.856720 267.211395,305.285736 
	C267.197418,312.138519 265.201630,319.387665 271.107971,325.548859 
	C271.396179,325.641022 271.684387,325.733215 272.395172,325.975494 
	C272.395172,325.975494 272.842743,326.004303 273.221527,326.708710 
	C280.621429,329.354431 287.342712,326.696625 294.007690,324.005798 
	C294.007690,324.005798 294.016968,324.072205 294.554352,323.941101 
	C294.732849,323.632599 294.911346,323.324097 295.017792,323.018250 
M251.799225,213.273163 
	C250.245575,212.908371 248.691910,212.543579 246.388977,211.894958 
	C243.592209,211.983978 240.795456,212.072998 237.117599,212.013916 
	C226.113251,210.864410 221.858719,216.709641 220.268494,224.579849 
	C219.721878,227.285126 220.166107,230.190598 220.025162,233.755188 
	C221.560120,239.128555 223.887512,243.927597 230.225647,244.563034 
	C233.053467,244.846527 235.976151,244.257523 238.849686,243.997208 
	C246.550110,243.299652 252.122650,238.780548 254.752228,231.747681 
	C254.489166,227.751205 254.226089,223.754715 253.980118,219.477463 
	C253.980118,219.477463 253.848663,219.228775 253.985870,218.455139 
	C253.340469,216.947189 252.695068,215.439224 252.001450,213.992966 
	C252.001450,213.992966 252.070190,213.955536 251.799225,213.273163 
M251.820877,302.351501 
	C251.200439,302.286255 250.580017,302.220978 249.575043,302.010437 
	C249.575043,302.010437 249.164673,301.986267 248.998917,301.230408 
	C244.095230,301.158630 239.105286,300.487976 234.311432,301.178619 
	C229.223190,301.911621 224.903366,304.675293 222.992249,310.002319 
	C222.992249,310.002319 222.961060,309.942566 222.300278,310.240784 
	C221.923477,311.819946 221.546692,313.399139 221.022034,315.894836 
	C221.632721,320.585327 222.243393,325.275787 222.982605,330.709778 
	C225.743896,335.290558 230.082703,336.586700 234.881241,335.517395 
	C239.704559,334.442566 244.348175,332.561279 249.005478,331.012848 
	C249.005478,331.012848 249.010391,331.080902 249.758881,331.007996 
	C250.168045,330.053253 250.577209,329.098480 251.670868,328.009094 
	C252.444489,327.063263 253.218124,326.117432 254.722290,324.779358 
	C254.972519,323.854095 255.339737,322.943054 255.454193,322.001282 
	C256.267792,315.305817 256.851746,308.635986 251.999878,302.996918 
	C251.999878,302.996918 252.061661,302.953552 251.820877,302.351501 
M379.800873,221.999802 
	C387.242645,216.644806 389.519989,206.993896 384.989655,199.261780 
	C384.678162,198.815460 384.366669,198.369125 383.804962,197.306900 
	C382.227203,196.182602 380.649445,195.058319 378.619934,193.190872 
	C374.629730,193.126740 370.583832,192.624298 366.665131,193.122452 
	C362.792114,193.614777 358.730652,194.600403 357.011993,198.970642 
	C357.011993,198.970642 356.958130,198.915695 356.251587,199.213058 
	C352.398529,205.662582 353.136536,212.399109 355.654358,218.914993 
	C356.317902,220.632202 359.087463,221.535599 361.573242,223.084457 
	C363.696625,223.332138 365.820007,223.579819 368.824493,223.970459 
	C372.249512,223.348511 375.674530,222.726562 379.800873,221.999802 
M253.822571,279.625061 
	C253.794220,273.416779 253.765869,267.208496 254.090195,260.403717 
	C259.556793,253.193680 267.413879,249.633484 275.666443,246.576721 
	C263.260956,242.809799 253.257339,247.104309 243.739395,254.605316 
	C234.489548,255.410110 225.750275,257.288788 220.383041,266.044220 
	C220.623413,267.187988 220.918854,268.593811 221.050125,270.907959 
	C221.269531,274.651825 220.951843,278.526703 221.826355,282.110718 
	C223.380478,288.479858 227.521744,290.058746 234.842972,289.162659 
	C242.175079,288.265259 249.576859,288.186188 253.822571,279.625061 
M154.945084,318.447906 
	C148.272644,314.368958 141.512604,316.952515 134.653900,317.899323 
	C127.472488,318.890625 123.761322,323.800873 122.442780,329.642212 
	C121.298035,334.713593 122.007607,340.562073 123.352638,345.685120 
	C124.021484,348.232666 127.855057,351.516846 130.431030,351.677612 
	C136.207352,352.037933 142.492676,351.689087 147.802261,349.638855 
	C151.791214,348.098572 156.013809,344.030579 157.592285,340.074402 
	C160.337692,333.193542 159.434036,325.719788 154.945084,318.447906 
M122.128410,285.111938 
	C122.088737,287.268707 121.954018,289.428650 122.026306,291.581635 
	C122.298325,299.683136 125.596939,306.250458 135.900848,304.994629 
	C139.133789,304.600616 142.471359,304.534393 145.563644,303.637512 
	C150.574692,302.184143 155.090622,300.133820 157.231720,294.447296 
	C159.604279,288.146057 158.871765,282.005676 157.284760,275.973022 
	C156.282379,272.162720 153.129562,269.837982 148.753250,269.982758 
	C146.597900,270.054077 144.436707,269.941986 142.280792,270.004150 
	C130.978958,270.330048 125.730476,274.103638 122.128410,285.111938 
M199.128586,340.974884 
	C212.027649,334.786194 211.413467,322.392059 207.614914,312.354431 
	C207.077545,310.934418 204.958817,309.198425 203.551880,309.180420 
	C197.498596,309.102875 191.378799,309.178986 185.391754,309.995148 
	C172.072678,311.810883 170.897583,332.831848 176.877289,340.247437 
	C177.980881,341.615997 180.214584,342.929718 181.858063,342.850220 
	C187.359573,342.584045 192.829971,341.674866 199.128586,340.974884 
M189.648315,262.988434 
	C182.560898,263.746765 176.713211,266.623901 174.821594,273.934021 
	C173.774765,277.979401 174.012833,282.415436 174.063095,286.670746 
	C174.117020,291.236176 175.928787,295.062683 180.777100,296.197784 
	C188.705826,298.054138 196.330521,296.932831 203.092911,292.299438 
	C209.402069,287.976532 209.225540,281.271362 209.047180,274.544403 
	C208.799942,265.220062 202.337616,260.053894 193.338974,262.306183 
	C192.403061,262.540405 191.463577,262.760284 189.648315,262.988434 
M281.311188,281.999664 
	C293.431610,280.737885 298.356140,277.099548 300.704590,267.671478 
	C302.930389,258.735901 298.389984,248.995895 290.928406,248.256729 
	C286.347015,247.802887 281.565460,249.115417 276.901978,249.820908 
	C272.878296,250.429626 270.464600,252.856964 268.718079,256.620667 
	C266.811127,260.729980 266.621674,264.721436 266.918274,269.118683 
	C267.622620,279.559906 269.931519,281.980011 281.311188,281.999664 
M339.938080,270.560059 
	C345.249359,265.517334 345.608215,258.952209 344.855743,252.424194 
	C344.047943,245.416046 339.562531,240.811707 333.822327,241.180542 
	C329.070068,241.485901 324.164154,242.490997 319.779968,244.290985 
	C317.089691,245.395538 313.868652,248.288635 313.318604,250.892487 
	C312.119751,256.567352 311.721130,262.680267 312.548645,268.389069 
	C312.907257,270.863098 316.866455,274.218323 319.601685,274.667511 
	C326.352997,275.776123 333.204437,274.755127 339.938080,270.560059 
M372.826416,235.009094 
	C371.240753,235.347961 369.665009,235.745468 368.067688,236.015442 
	C361.574066,237.112930 356.565308,240.383118 355.581238,247.099457 
	C354.888977,251.824020 355.055023,256.983337 356.285400,261.559296 
	C356.972137,264.113434 360.411072,267.312531 362.972229,267.677490 
	C367.702576,268.351532 372.831146,267.715515 377.555786,266.608917 
	C385.307983,264.793213 389.709656,256.073456 387.901703,246.457489 
	C386.378815,238.357819 384.083435,234.055634 372.826416,235.009094 
z"/>
<path fill="#C1C1C1" opacity="1.000000" stroke="none" 
	d="
M83.129440,181.379959 
	C83.047600,181.247620 83.454605,181.015671 83.676521,181.085693 
	C83.898438,181.155701 83.645752,181.516907 83.645752,181.516907 
	C83.645752,181.516907 83.211281,181.512299 83.129440,181.379959 
z"/>
<path fill="#94281B" opacity="1.000000" stroke="none" 
	d="
M165.993210,152.132355 
	C167.600098,151.358780 169.584579,150.945068 170.735809,149.737213 
	C173.185013,147.167557 175.564957,144.390915 177.302109,141.319519 
	C179.437927,137.543198 180.889282,133.379761 182.933258,129.178497 
	C189.266388,135.025726 188.398956,148.340973 180.653687,154.489655 
	C172.853394,160.682007 161.978561,160.207199 155.403290,151.378983 
	C159.179062,151.407181 162.586136,151.769760 165.993210,152.132355 
z"/>
<path fill="#94261A" opacity="1.000000" stroke="none" 
	d="
M250.014389,136.976532 
	C261.990540,138.138763 265.851013,135.668716 270.109955,124.597946 
	C271.582947,120.769058 273.581696,117.142433 275.603333,113.223190 
	C277.535736,118.687820 280.149963,124.016441 278.124786,130.404922 
	C274.018829,143.357498 260.731750,146.116974 250.784332,140.731903 
	C248.509750,139.500565 247.082321,136.704330 245.575592,134.395111 
	C246.440643,134.110428 246.995148,134.058929 247.549637,134.007431 
	C247.549637,134.007431 247.951614,134.216248 247.826767,134.719391 
	C248.472748,135.807205 249.243561,136.391876 250.014389,136.976532 
z"/>
<path fill="#98261B" opacity="1.000000" stroke="none" 
	d="
M359.876495,119.944000 
	C359.876495,119.944000 360.023865,119.575256 360.373627,119.274559 
	C361.961151,116.318207 363.198944,113.662552 364.436737,111.006897 
	C365.769745,107.514351 367.102722,104.021805 368.690674,100.302307 
	C369.333191,102.352516 369.493805,104.697289 370.148499,106.894859 
	C372.676697,115.381119 370.854950,122.779831 364.511078,127.907135 
	C357.794708,133.335495 350.316437,133.107651 342.978241,129.666183 
	C340.871063,128.677963 339.654510,125.790634 337.990936,123.423080 
	C341.761322,125.428734 345.288910,128.604080 351.029663,127.173096 
	C354.434845,124.657028 357.155670,122.300507 359.876495,119.944000 
z"/>
<path fill="#000000" opacity="1.000000" stroke="none" 
	d="
M345.387512,97.892815 
	C345.488647,98.668823 345.249634,99.485214 344.678040,100.809448 
	C341.955780,105.867180 339.566101,110.417061 337.176453,114.966949 
	C337.125671,115.985382 337.074921,117.003822 336.768738,118.450012 
	C336.513367,118.877762 336.057770,118.939995 336.057770,118.939995 
	C336.057770,118.939995 336.019043,118.963486 335.955566,118.708008 
	C335.612793,118.251457 335.333496,118.050385 335.054169,117.849319 
	C334.418610,112.117249 335.514923,106.873375 339.661957,102.628090 
	C341.320770,100.929970 343.244354,99.490448 345.387512,97.892815 
z"/>
<path fill="#000000" opacity="1.000000" stroke="none" 
	d="
M247.287598,133.700500 
	C246.995148,134.058929 246.440643,134.110428 245.461578,134.067444 
	C245.037018,133.972992 245.010773,133.989685 245.007217,133.621994 
	C244.346008,131.798447 243.688354,130.342590 243.030716,128.886734 
	C241.871582,120.587929 244.984604,114.327705 252.391388,109.913879 
	C251.139465,112.753761 249.827209,115.832527 247.919586,118.482750 
	C244.377274,123.404045 243.932495,127.986755 247.287598,133.700500 
z"/>
<path fill="#000000" opacity="1.000000" stroke="none" 
	d="
M158.710876,125.915085 
	C158.627014,127.387695 158.473694,129.128784 157.741425,130.577164 
	C156.727356,132.582916 155.277863,134.368530 153.649200,136.839371 
	C153.754501,140.718658 154.225433,144.006973 154.512238,147.479584 
	C154.204895,147.786209 154.081665,147.908554 153.697876,147.878326 
	C152.968887,147.110825 152.500473,146.495895 152.032059,145.880981 
	C152.032059,145.880981 151.918549,145.533188 151.957855,144.910461 
	C151.955750,142.483551 151.914322,140.679367 151.872894,138.875168 
	C151.383514,133.250778 154.738419,129.578293 158.710876,125.915085 
z"/>
<path fill="#000000" opacity="1.000000" stroke="none" 
	d="
M165.588654,152.040955 
	C162.586136,151.769760 159.179062,151.407181 155.386246,151.025055 
	C155.000504,151.005493 155.000305,150.999390 154.941574,150.738785 
	C154.596497,150.283279 154.310150,150.088394 154.023804,149.893494 
	C154.023804,149.893494 153.896912,149.537186 153.930161,149.075745 
	C153.961761,148.419846 153.960114,148.225388 153.958450,148.030914 
	C154.081665,147.908554 154.204895,147.786209 154.723877,147.669556 
	C155.715134,148.127777 156.310623,148.580276 156.906113,149.032791 
	C159.665436,150.005035 162.424774,150.977295 165.588654,152.040955 
z"/>
<path fill="#94281B" opacity="1.000000" stroke="none" 
	d="
M151.530151,139.002197 
	C151.914322,140.679367 151.955750,142.483551 151.907440,144.734619 
	C149.012970,143.434280 149.550919,141.338959 151.530151,139.002197 
z"/>
<path fill="#94261A" opacity="1.000000" stroke="none" 
	d="
M243.011292,129.289871 
	C243.688354,130.342590 244.346008,131.798447 245.015945,133.610992 
	C244.349442,132.542786 243.670654,131.117905 243.011292,129.289871 
z"/>
<path fill="#98261B" opacity="1.000000" stroke="none" 
	d="
M336.031494,119.315323 
	C336.057770,118.939995 336.513367,118.877762 336.739502,118.832458 
	C337.297882,119.961090 337.630096,121.135017 337.944916,122.676201 
	C337.286743,121.925858 336.645996,120.808250 336.031494,119.315323 
z"/>
<path fill="#94281B" opacity="1.000000" stroke="none" 
	d="
M153.697876,147.878326 
	C153.960114,148.225388 153.961761,148.419846 153.877197,148.894211 
	C153.187531,148.311935 152.584091,147.449768 152.006348,146.234283 
	C152.500473,146.495895 152.968887,147.110825 153.697876,147.878326 
z"/>
<path fill="#98261B" opacity="1.000000" stroke="none" 
	d="
M335.133636,118.101410 
	C335.333496,118.050385 335.612793,118.251457 335.971497,118.702499 
	C335.771606,118.752815 335.492340,118.553154 335.133636,118.101410 
z"/>
<path fill="#94281B" opacity="1.000000" stroke="none" 
	d="
M154.099854,150.142914 
	C154.310150,150.088394 154.596497,150.283279 154.938705,150.738068 
	C154.721680,150.796082 154.448776,150.594208 154.099854,150.142914 
z"/>
<path fill="#8B3931" opacity="1.000000" stroke="none" 
	d="
M79.664337,180.562469 
	C79.692490,180.259933 79.944107,180.177155 80.582123,180.002502 
	C80.968529,179.910629 81.067032,180.358658 81.082588,180.587433 
	C80.694702,180.804871 80.291252,180.793549 79.664337,180.562469 
z"/>
<path fill="#8B3931" opacity="1.000000" stroke="none" 
	d="
M66.666153,173.565063 
	C68.602684,174.282135 70.760147,175.273560 72.964607,176.627441 
	C70.970100,175.939743 68.928589,174.889572 66.666153,173.565063 
z"/>
<path fill="#8B3931" opacity="1.000000" stroke="none" 
	d="
M73.757652,177.478241 
	C74.228752,177.417130 74.917137,177.618973 75.716537,178.185699 
	C75.210014,178.280777 74.592476,178.011002 73.757652,177.478241 
z"/>
<path fill="#8B3931" opacity="1.000000" stroke="none" 
	d="
M64.839966,172.540192 
	C65.055351,172.404053 65.397720,172.515823 65.868690,172.878021 
	C65.653847,173.015015 65.310402,172.901566 64.839966,172.540192 
z"/>
<path fill="#8B3931" opacity="1.000000" stroke="none" 
	d="
M77.603951,179.542267 
	C77.822136,179.400436 78.236443,179.515701 78.829430,179.911377 
	C78.605431,180.060974 78.202751,179.930176 77.603951,179.542267 
z"/>
<path fill="#000000" opacity="1.000000" stroke="none" 
	d="
M155.897461,70.055855 
	C158.918289,76.780853 161.939117,83.505852 164.860474,90.616501 
	C153.464630,92.667580 142.168228,94.333000 130.455200,95.963974 
	C130.014740,95.195702 129.990921,94.461899 129.956085,92.955360 
	C131.417404,87.205193 131.930222,81.639343 134.550705,77.365944 
	C141.145721,66.610985 145.965775,62.366371 155.897461,70.055855 
z"/>
<path fill="#C6C7CB" opacity="1.000000" stroke="none" 
	d="
M268.005310,57.113609 
	C276.642639,78.384727 276.909943,99.197586 267.097229,119.781204 
	C265.606445,122.908310 263.516113,125.765244 261.562347,128.651871 
	C259.324219,131.958679 256.232269,133.558319 252.660751,131.047714 
	C249.059708,128.516357 250.128281,125.074799 252.470474,122.349068 
	C258.336365,115.522621 261.389526,107.428223 262.472168,98.789497 
	C264.345978,83.837807 263.379730,69.242455 254.557709,56.123829 
	C250.800629,50.536930 245.964890,46.885330 239.228210,46.179890 
	C235.247574,45.763050 233.397690,43.695599 234.029434,39.893578 
	C234.655685,36.124741 237.405197,34.700397 241.025543,35.179478 
	C251.116760,36.514839 258.400879,42.239590 264.067352,50.314529 
	C265.495636,52.349934 266.604889,54.609207 268.005310,57.113609 
z"/>
<path fill="#000000" opacity="1.000000" stroke="none" 
	d="
M256.921387,77.650833 
	C245.196243,79.703369 233.546341,81.361435 221.479187,83.033783 
	C221.189255,72.134651 224.553024,62.636559 233.148560,55.430328 
	C237.415588,51.852974 242.091339,52.048473 246.254379,55.756207 
	C251.764130,60.663395 254.328323,67.095879 256.075653,73.999474 
	C256.352386,75.092758 256.688171,76.171104 256.921387,77.650833 
z"/>
<path fill="#000000" opacity="1.000000" stroke="none" 
	d="
M249.952789,136.648926 
	C249.243561,136.391876 248.472748,135.807205 247.846909,134.836426 
	C248.625000,135.073990 249.258102,135.697647 249.952789,136.648926 
z"/>
<path fill="#C6C7CA" opacity="1.000000" stroke="none" 
	d="
M345.817657,44.181969 
	C342.514404,39.088238 338.061310,36.543270 332.433105,35.989223 
	C328.575562,35.609482 325.858917,33.668858 326.245941,29.687260 
	C326.612579,25.915230 329.636810,24.679266 333.234192,24.960777 
	C341.904846,25.639294 348.778015,29.767941 353.913055,36.532162 
	C364.917969,51.028564 368.361267,67.546921 366.428589,85.438385 
	C365.193054,96.875984 362.069855,107.575920 355.036194,116.883011 
	C354.237518,117.939880 353.482025,119.082512 352.487427,119.927551 
	C350.167297,121.898796 347.638977,123.022789 344.947693,120.506683 
	C342.491791,118.210564 342.644501,115.870865 344.230591,112.926491 
	C347.747467,106.397911 352.097168,99.963936 353.882355,92.926949 
	C358.201447,75.901825 356.633057,59.322281 345.817657,44.181969 
z"/>
<path fill="#000000" opacity="1.000000" stroke="none" 
	d="
M347.878479,64.566528 
	C341.996094,65.975418 336.222839,67.072243 330.419861,67.978638 
	C325.256317,68.785164 320.059753,69.380730 314.461243,70.070114 
	C314.003754,59.707432 317.726929,51.161942 325.869751,44.506409 
	C330.783661,40.490044 336.966858,42.460606 339.188293,46.028133 
	C342.720306,51.700378 345.104828,58.087112 347.878479,64.566528 
z"/>
<path fill="#9C908B" opacity="1.000000" stroke="none" 
	d="
M337.453094,114.795013 
	C339.566101,110.417061 341.955780,105.867180 344.642242,101.144363 
	C345.174713,102.181679 346.030518,103.818642 345.541077,104.529953 
	C343.133331,108.029205 340.368500,111.282776 337.453094,114.795013 
z"/>
<path fill="#AA7F76" opacity="1.000000" stroke="none" 
	d="
M359.539551,119.998558 
	C357.155670,122.300507 354.434845,124.657028 351.352966,127.028831 
	C353.728790,124.713783 356.465668,122.383453 359.539551,119.998558 
z"/>
<path fill="#AA7F76" opacity="1.000000" stroke="none" 
	d="
M364.155884,111.111183 
	C363.198944,113.662552 361.961151,116.318207 360.392120,119.076874 
	C361.332245,116.525078 362.603668,113.870270 364.155884,111.111183 
z"/>
<path fill="#C5C7CA" opacity="1.000000" stroke="none" 
	d="
M181.184509,117.066132 
	C179.336441,126.613914 175.643738,134.877701 169.873917,142.179962 
	C167.574020,145.090698 164.902023,147.617554 161.122955,144.576843 
	C157.536758,141.691315 158.745773,138.487595 161.161087,135.417496 
	C170.204926,123.921883 172.888626,110.555901 171.183990,96.502655 
	C170.241272,88.730865 168.134445,80.833878 165.007919,73.667084 
	C161.773575,66.253136 156.214935,60.532219 147.002457,59.689144 
	C145.198547,59.524059 142.310562,55.872723 142.460052,54.035816 
	C142.607559,52.223152 145.934677,49.296059 147.931824,49.241627 
	C157.245743,48.987782 164.422394,53.824612 170.061279,60.811363 
	C177.588989,70.138428 181.606476,81.011963 182.007782,92.942696 
	C182.273026,100.828064 181.549881,108.746689 181.184509,117.066132 
z"/>
<path fill="#989796" opacity="1.000000" stroke="none" 
	d="
M156.149918,69.847542 
	C145.965775,62.366371 141.145721,66.610985 134.550705,77.365944 
	C131.930222,81.639343 131.417404,87.205193 129.887054,92.593048 
	C129.216385,92.614281 128.115173,92.280891 128.063400,91.827629 
	C127.075935,83.182350 136.610443,67.743469 144.735245,64.654785 
	C149.557114,62.821728 155.349411,65.296326 156.149918,69.847542 
z"/>
<path fill="#968583" opacity="1.000000" stroke="none" 
	d="
M157.160858,148.817444 
	C156.310623,148.580276 155.715134,148.127777 154.908005,147.485291 
	C154.225433,144.006973 153.754501,140.718658 153.611694,137.197662 
	C155.098419,140.844040 156.257004,144.723068 157.160858,148.817444 
z"/>
<path fill="#CECECD" opacity="1.000000" stroke="none" 
	d="
M155.236694,318.725769 
	C159.434036,325.719788 160.337692,333.193542 157.592285,340.074402 
	C156.013809,344.030579 151.791214,348.098572 147.802261,349.638855 
	C142.492676,351.689087 136.207352,352.037933 130.431030,351.677612 
	C127.855057,351.516846 124.021484,348.232666 123.352638,345.685120 
	C122.007607,340.562073 121.298035,334.713593 122.442780,329.642212 
	C123.761322,323.800873 127.472488,318.890625 134.653900,317.899323 
	C141.512604,316.952515 148.272644,314.368958 155.236694,318.725769 
z"/>
<path fill="#CDCDCD" opacity="1.000000" stroke="none" 
	d="
M122.241791,284.696930 
	C125.730476,274.103638 130.978958,270.330048 142.280792,270.004150 
	C144.436707,269.941986 146.597900,270.054077 148.753250,269.982758 
	C153.129562,269.837982 156.282379,272.162720 157.284760,275.973022 
	C158.871765,282.005676 159.604279,288.146057 157.231720,294.447296 
	C155.090622,300.133820 150.574692,302.184143 145.563644,303.637512 
	C142.471359,304.534393 139.133789,304.600616 135.900848,304.994629 
	C125.596939,306.250458 122.298325,299.683136 122.026306,291.581635 
	C121.954018,289.428650 122.088737,287.268707 122.241791,284.696930 
z"/>
<path fill="#CECECD" opacity="1.000000" stroke="none" 
	d="
M198.720428,340.993408 
	C192.829971,341.674866 187.359573,342.584045 181.858063,342.850220 
	C180.214584,342.929718 177.980881,341.615997 176.877289,340.247437 
	C170.897583,332.831848 172.072678,311.810883 185.391754,309.995148 
	C191.378799,309.178986 197.498596,309.102875 203.551880,309.180420 
	C204.958817,309.198425 207.077545,310.934418 207.614914,312.354431 
	C211.413467,322.392059 212.027649,334.786194 198.720428,340.993408 
z"/>
<path fill="#CDCDCD" opacity="1.000000" stroke="none" 
	d="
M190.087036,262.987610 
	C191.463577,262.760284 192.403061,262.540405 193.338974,262.306183 
	C202.337616,260.053894 208.799942,265.220062 209.047180,274.544403 
	C209.225540,281.271362 209.402069,287.976532 203.092911,292.299438 
	C196.330521,296.932831 188.705826,298.054138 180.777100,296.197784 
	C175.928787,295.062683 174.117020,291.236176 174.063095,286.670746 
	C174.012833,282.415436 173.774765,277.979401 174.821594,273.934021 
	C176.713211,266.623901 182.560898,263.746765 190.087036,262.987610 
z"/>
<path fill="#CBCBCA" opacity="1.000000" stroke="none" 
	d="
M280.857056,281.993225 
	C269.931519,281.980011 267.622620,279.559906 266.918274,269.118683 
	C266.621674,264.721436 266.811127,260.729980 268.718079,256.620667 
	C270.464600,252.856964 272.878296,250.429626 276.901978,249.820908 
	C281.565460,249.115417 286.347015,247.802887 290.928406,248.256729 
	C298.389984,248.995895 302.930389,258.735901 300.704590,267.671478 
	C298.356140,277.099548 293.431610,280.737885 280.857056,281.993225 
z"/>
<path fill="#CDCDCC" opacity="1.000000" stroke="none" 
	d="
M339.609924,270.760925 
	C333.204437,274.755127 326.352997,275.776123 319.601685,274.667511 
	C316.866455,274.218323 312.907257,270.863098 312.548645,268.389069 
	C311.721130,262.680267 312.119751,256.567352 313.318604,250.892487 
	C313.868652,248.288635 317.089691,245.395538 319.779968,244.290985 
	C324.164154,242.490997 329.070068,241.485901 333.822327,241.180542 
	C339.562531,240.811707 344.047943,245.416046 344.855743,252.424194 
	C345.608215,258.952209 345.249359,265.517334 339.609924,270.760925 
z"/>
<path fill="#CECECD" opacity="1.000000" stroke="none" 
	d="
M373.272552,235.006348 
	C384.083435,234.055634 386.378815,238.357819 387.901703,246.457489 
	C389.709656,256.073456 385.307983,264.793213 377.555786,266.608917 
	C372.831146,267.715515 367.702576,268.351532 362.972229,267.677490 
	C360.411072,267.312531 356.972137,264.113434 356.285400,261.559296 
	C355.055023,256.983337 354.888977,251.824020 355.581238,247.099457 
	C356.565308,240.383118 361.574066,237.112930 368.067688,236.015442 
	C369.665009,235.745468 371.240753,235.347961 373.272552,235.006348 
z"/>
<path fill="#FBD525" opacity="1.000000" stroke="none" 
	d="
M297.109070,295.960968 
	C298.128021,297.179749 299.889038,298.316315 300.034790,299.631836 
	C300.604309,304.772186 301.114258,310.008057 300.673096,315.124542 
	C300.512848,316.983185 297.628967,318.606964 295.691132,320.868958 
	C295.276581,321.962158 295.158630,322.524384 295.040710,323.086578 
	C295.040710,323.086578 295.017792,323.018250 294.801758,323.107971 
	C294.396179,323.489197 294.206573,323.780701 294.016968,324.072205 
	C294.016968,324.072205 294.007690,324.005798 293.591827,323.984680 
	C286.398224,324.643768 279.620483,325.324036 272.842743,326.004303 
	C272.842743,326.004303 272.395172,325.975494 272.088135,325.733368 
	C271.617493,325.284058 271.411591,325.135406 271.163391,325.045288 
	C265.201630,319.387665 267.197418,312.138519 267.885101,304.925293 
	C275.839691,294.277618 286.031219,293.648712 297.109070,295.960968 
M291.028564,301.201294 
	C292.115601,302.278259 293.202667,303.355225 294.289703,304.432159 
	C291.791016,296.218384 291.227661,295.840027 287.004761,298.348694 
	C288.255310,299.038971 289.577454,299.768768 291.028564,301.201294 
z"/>
<path fill="#FCD422" opacity="1.000000" stroke="none" 
	d="
M222.854080,329.966278 
	C222.243393,325.275787 221.632721,320.585327 221.448212,315.343323 
	C222.236603,313.175385 222.598846,311.558960 222.961060,309.942566 
	C222.961060,309.942566 222.992249,310.002319 223.341324,309.992584 
	C226.051483,308.400421 228.216248,306.062927 230.813217,305.387665 
	C236.819107,303.825989 243.034332,303.069366 249.164673,301.986267 
	C249.164673,301.986267 249.575043,302.010437 249.971313,302.299744 
	C250.932266,302.710541 251.496964,302.832031 252.061661,302.953552 
	C252.061661,302.953552 251.999878,302.996918 251.980530,303.326965 
	C252.514420,306.109863 253.371429,308.540192 253.555618,311.020477 
	C253.904755,315.722382 253.868134,320.452972 253.991760,325.171631 
	C253.218124,326.117432 252.444489,327.063263 251.079865,328.232056 
	C249.996033,329.330322 249.503204,330.205627 249.010391,331.080902 
	C249.010391,331.080902 249.005478,331.012848 248.655579,330.987976 
	C247.538132,330.988068 246.770584,331.013000 245.940979,330.691711 
	C244.500000,329.054474 243.121094,327.763428 241.648071,326.384277 
	C241.353592,327.083313 241.139252,327.369263 241.124298,327.665283 
	C241.051697,329.103729 241.032532,330.544830 240.663132,331.995056 
	C239.890106,331.995239 239.448349,331.985413 238.957092,331.622437 
	C236.285248,328.261444 236.285248,328.261444 233.618011,333.087097 
	C229.797607,332.071259 226.325836,331.018768 222.854080,329.966278 
z"/>
<path fill="#FCD424" opacity="1.000000" stroke="none" 
	d="
M299.837891,216.944244 
	C299.960968,222.025970 300.356781,226.670731 296.236298,231.257339 
	C292.427216,235.497360 287.766388,235.654755 283.298767,236.802979 
	C280.033356,237.642227 276.381073,236.975998 272.331055,236.716507 
	C271.540100,236.202271 271.263885,236.060043 270.932190,236.025528 
	C270.932190,236.025528 270.996490,236.009918 270.913971,235.784546 
	C270.537689,235.380020 270.243927,235.200867 269.950195,235.021698 
	C269.950195,235.021698 270.001129,235.002502 270.008179,234.603790 
	C269.331879,227.118683 268.648529,220.032318 267.965210,212.945938 
	C267.965210,212.945938 267.992523,213.002777 268.320923,212.954956 
	C269.090118,211.917908 269.530975,210.928696 269.971832,209.939484 
	C269.971832,209.939484 269.998230,209.996292 270.354675,209.999939 
	C274.203674,208.880127 277.702759,207.776321 281.185516,206.623230 
	C282.516174,206.182663 283.809479,205.629196 285.520203,205.113556 
	C287.265717,205.082077 288.610779,205.064209 290.189392,205.276947 
	C291.269714,205.691040 292.116425,205.874542 293.202393,206.298279 
	C294.317047,206.678177 295.192474,206.817856 296.067902,206.957520 
	C296.067902,206.957520 296.006531,206.997269 295.991180,207.357849 
	C297.263184,210.793716 298.550537,213.868973 299.837891,216.944244 
M288.630249,229.135208 
	C285.843292,227.920181 282.798981,225.392410 280.344543,225.873581 
	C278.066528,226.320160 273.394684,226.734940 273.649811,231.530869 
	C277.032928,228.700623 280.369598,226.575867 284.843567,228.884003 
	C285.807556,229.381332 287.014282,229.408157 288.630249,229.135208 
z"/>
<path fill="#FCD424" opacity="1.000000" stroke="none" 
	d="
M253.867584,231.868057 
	C252.122650,238.780548 246.550110,243.299652 238.849686,243.997208 
	C235.976151,244.257523 233.053467,244.846527 230.225647,244.563034 
	C223.887512,243.927597 221.560120,239.128555 220.468750,233.368744 
	C228.178696,233.145035 221.837753,226.250504 225.333542,224.457687 
	C224.681671,223.516571 224.029800,222.575470 222.832672,220.847153 
	C225.894424,218.558945 228.851166,216.060806 232.103134,214.037064 
	C233.800095,212.981033 236.016754,212.760132 237.998688,212.162018 
	C240.795456,212.072998 243.592209,211.983978 246.743134,212.209839 
	C247.097290,212.524719 247.089584,212.872574 247.066910,212.905594 
	C247.044235,212.938614 246.995789,213.002441 246.629272,213.013611 
	C244.186707,214.577942 244.635284,220.656906 247.220337,223.250595 
	C249.593994,222.995529 251.746109,222.488647 253.938141,222.432953 
	C253.941223,225.878769 253.904404,228.873413 253.867584,231.868057 
M239.111389,220.640869 
	C240.336548,220.370544 241.561691,220.100220 242.786819,219.829880 
	C241.865768,218.886078 240.944702,217.942276 239.351257,217.003204 
	C238.903076,217.005936 238.454895,217.008667 237.889755,216.346802 
	C233.933807,211.684052 232.673431,219.410782 229.320526,217.519760 
	C229.296967,217.976913 229.273407,218.434052 229.249832,218.891205 
	C230.490677,219.256393 231.731537,219.621597 232.999695,220.675400 
	C234.474747,223.089828 234.474747,223.089828 239.111389,220.640869 
M248.300537,226.903503 
	C248.378464,227.756332 248.456390,228.609161 248.534317,229.461990 
	C249.104843,229.263779 249.675354,229.065552 250.245865,228.867340 
	C249.742844,228.050476 249.239838,227.233612 248.300537,226.903503 
z"/>
<path fill="#FCD520" opacity="1.000000" stroke="none" 
	d="
M318.054047,230.849243 
	C316.107910,229.146729 314.161774,227.444229 312.106750,224.950409 
	C311.990051,218.753815 311.982300,213.348541 311.974518,207.943268 
	C311.974518,207.943268 311.995270,208.000259 312.333313,207.946930 
	C313.098053,206.579102 313.524780,205.264603 313.951477,203.950089 
	C313.951477,203.950089 314.004242,203.986801 314.237610,203.916931 
	C314.638367,203.540726 314.805756,203.234421 314.973114,202.928101 
	C314.973114,202.928101 314.991241,202.996170 315.229980,203.006500 
	C315.647522,203.014832 315.826294,203.012817 316.387878,202.951294 
	C324.311432,200.517792 331.875488,198.432205 339.817810,201.030685 
	C339.817810,201.030685 339.979828,201.455383 339.800659,201.973160 
	C336.746155,203.326111 333.870819,204.161270 331.156189,204.761871 
	C331.214691,203.863113 331.290649,202.721771 330.983246,202.606964 
	C327.004700,201.121094 324.723267,203.570404 321.938202,206.598236 
	C323.739868,206.760834 324.855499,206.861511 326.035248,207.294113 
	C331.070251,207.749710 336.041168,207.873398 341.023407,208.245026 
	C341.034760,208.492981 341.044159,208.989319 340.728455,209.158997 
	C338.140259,211.981461 338.264221,213.982529 341.967834,215.415558 
	C341.000977,219.234344 340.024841,222.650131 339.048676,226.065918 
	C339.048676,226.065918 339.001831,226.003250 338.635010,225.999207 
	C331.530151,227.613205 324.792084,229.231216 318.054047,230.849243 
z"/>
<path fill="#FBD51A" opacity="1.000000" stroke="none" 
	d="
M379.071686,193.934021 
	C380.649445,195.058319 382.227203,196.182602 383.696594,197.887695 
	C382.120819,197.908173 380.664154,197.317551 379.183380,196.795258 
	C377.341034,196.145401 375.478790,195.552017 373.625122,194.934235 
	C373.344177,195.385956 373.063232,195.837677 372.782288,196.289383 
	C374.453003,201.215057 381.881256,204.326584 377.583557,211.000854 
	C373.270660,211.442444 369.375458,211.884415 364.721130,212.412506 
	C365.585205,213.296066 366.257080,214.412659 367.240173,214.895340 
	C369.066284,215.791916 371.074005,216.318680 373.384888,217.000854 
	C375.093231,217.421860 376.422791,217.841400 378.658081,218.546722 
	C376.347382,219.788574 375.140869,220.436981 373.572632,221.106720 
	C371.455048,222.027878 369.699219,222.927689 367.943390,223.827499 
	C365.820007,223.579819 363.696625,223.332138 361.066284,222.661987 
	C359.037537,218.972244 356.649567,215.816696 356.210144,212.409836 
	C355.643585,208.017029 356.636719,203.423035 356.958130,198.915695 
	C356.958130,198.915695 357.011993,198.970642 357.320740,198.945770 
	C360.392090,198.538147 363.154724,198.155380 366.570038,197.682175 
	C366.887695,194.140900 370.359192,194.193771 373.655914,194.019394 
	C375.457642,193.924103 377.266205,193.958252 379.071686,193.934021 
M360.061401,202.785049 
	C361.396393,203.315018 362.706665,204.146484 364.075867,204.258591 
	C364.860626,204.322845 365.740997,203.218643 366.578308,202.640472 
	C365.347107,202.037155 364.143616,201.040222 362.876221,200.951004 
	C361.798737,200.875153 360.647583,201.845795 360.061401,202.785049 
z"/>
<path fill="#CA2E15" opacity="1.000000" stroke="none" 
	d="
M244.312164,255.161423 
	C253.257339,247.104309 263.260956,242.809799 275.666443,246.576721 
	C267.413879,249.633484 259.556793,253.193680 253.575378,260.757751 
	C251.655777,262.356415 250.250977,263.601044 248.917435,264.869568 
	C248.988693,264.893433 248.840454,264.873322 248.541550,264.996521 
	C247.443375,266.372314 246.644089,267.624908 245.877670,268.946167 
	C245.910538,269.014832 245.870087,268.868958 245.570648,269.032745 
	C243.288315,272.516205 241.305405,275.835876 239.568527,278.743652 
	C234.898254,275.511383 230.617630,272.548828 226.145813,269.705627 
	C225.954636,269.825012 226.329758,269.570129 226.193604,269.282776 
	C224.862061,268.119598 223.666702,267.243805 222.471329,266.367981 
	C226.017914,265.194763 229.251572,264.939575 232.487366,264.908478 
	C240.273911,264.833649 242.657944,262.915314 244.312164,255.161423 
z"/>
<path fill="#CCCCCC" opacity="1.000000" stroke="none" 
	d="
M253.129059,280.014801 
	C249.576859,288.186188 242.175079,288.265259 234.842972,289.162659 
	C227.521744,290.058746 223.380478,288.479858 221.826355,282.110718 
	C220.951843,278.526703 221.269531,274.651825 221.557861,270.456757 
	C223.486984,269.860413 224.908371,269.715271 226.329758,269.570129 
	C226.329758,269.570129 225.954636,269.825012 226.153015,270.067749 
	C228.752808,272.552094 231.310623,274.650177 233.524811,277.063568 
	C239.007767,283.039795 240.200211,282.520630 244.844360,274.638214 
	C245.773529,273.061157 245.557861,270.809540 245.870087,268.868958 
	C245.870087,268.868958 245.910538,269.014832 246.250153,268.947449 
	C247.339996,267.544525 248.090240,266.208923 248.840454,264.873322 
	C248.840454,264.873322 248.988693,264.893433 249.301147,264.883789 
	C252.296371,263.793182 253.131546,264.844360 253.057709,267.547852 
	C252.944305,271.699768 253.092102,275.858795 253.129059,280.014801 
z"/>
<path fill="#D2B8B3" opacity="1.000000" stroke="none" 
	d="
M226.193604,269.282776 
	C224.908371,269.715271 223.486984,269.860413 221.639954,270.002625 
	C220.918854,268.593811 220.623413,267.187988 220.383041,266.044220 
	C225.750275,257.288788 234.489548,255.410110 244.025787,254.883362 
	C242.657944,262.915314 240.273911,264.833649 232.487366,264.908478 
	C229.251572,264.939575 226.017914,265.194763 222.471329,266.367981 
	C223.666702,267.243805 224.862061,268.119598 226.193604,269.282776 
z"/>
<path fill="#FCD52B" opacity="1.000000" stroke="none" 
	d="
M378.001221,211.001221 
	C381.881256,204.326584 374.453003,201.215057 372.782288,196.289383 
	C373.063232,195.837677 373.344177,195.385956 373.625122,194.934235 
	C375.478790,195.552017 377.341034,196.145401 379.183380,196.795258 
	C380.664154,197.317551 382.120819,197.908173 383.821655,198.195633 
	C384.366669,198.369125 384.678162,198.815460 384.990784,199.994797 
	C385.304291,203.499847 385.616669,206.271866 385.726746,209.154388 
	C385.276581,209.464172 385.103424,209.715042 385.004059,210.007050 
	C385.003174,209.996582 385.020905,210.010345 384.630432,210.056381 
	C382.159576,210.401215 380.079193,210.699997 377.999390,210.999390 
	C378.000000,211.000000 378.001221,211.001221 378.001221,211.001221 
z"/>
<path fill="#F5D850" opacity="1.000000" stroke="none" 
	d="
M345.100006,294.947021 
	C348.247437,310.434540 343.888611,317.068146 331.210266,318.875519 
	C326.671692,319.522552 321.944824,318.848663 317.170105,318.361328 
	C317.036285,317.944977 317.127960,317.818176 317.580048,317.863464 
	C321.173187,317.930664 324.455658,318.549469 327.424957,317.846191 
	C333.053741,316.513000 340.078644,316.725067 341.887085,309.209473 
	C343.003510,304.569672 343.327789,299.739227 344.280823,294.983887 
	C344.735992,294.964569 344.917999,294.955780 345.100006,294.947021 
z"/>
<path fill="#FAD432" opacity="1.000000" stroke="none" 
	d="
M237.558136,212.087967 
	C236.016754,212.760132 233.800095,212.981033 232.103134,214.037064 
	C228.851166,216.060806 225.894424,218.558945 222.832672,220.847153 
	C224.029800,222.575470 224.681671,223.516571 225.333542,224.457687 
	C221.837753,226.250504 228.178696,233.145035 220.535004,232.993454 
	C220.166107,230.190598 219.721878,227.285126 220.268494,224.579849 
	C221.858719,216.709641 226.113251,210.864410 237.558136,212.087967 
z"/>
<path fill="#EED567" opacity="1.000000" stroke="none" 
	d="
M297.053131,295.575256 
	C286.031219,293.648712 275.839691,294.277618 268.270996,304.706177 
	C270.186676,301.856720 271.771576,297.767944 274.723175,296.104980 
	C280.760834,292.703278 287.656433,291.319183 294.703461,293.071716 
	C295.588867,293.291901 296.238373,294.460388 297.053131,295.575256 
z"/>
<path fill="#F5D74C" opacity="1.000000" stroke="none" 
	d="
M249.081787,301.608337 
	C243.034332,303.069366 236.819107,303.825989 230.813217,305.387665 
	C228.216248,306.062927 226.051483,308.400421 223.313782,309.973083 
	C224.903366,304.675293 229.223190,301.911621 234.311432,301.178619 
	C239.105286,300.487976 244.095230,301.158630 249.081787,301.608337 
z"/>
<path fill="#FCD52B" opacity="1.000000" stroke="none" 
	d="
M341.012054,207.997070 
	C336.041168,207.873398 331.070251,207.749710 326.128479,206.937073 
	C327.770233,205.830887 329.382874,205.413651 330.995483,204.996429 
	C333.870819,204.161270 336.746155,203.326111 339.833893,202.197983 
	C340.216431,201.941788 340.386597,201.978531 340.935486,202.281403 
	C341.539246,202.770020 341.808533,202.902359 342.122162,202.944504 
	C342.122162,202.944504 342.041870,202.973312 342.031738,203.313446 
	C341.685059,205.101410 341.348572,206.549240 341.012054,207.997070 
z"/>
<path fill="#F3D55C" opacity="1.000000" stroke="none" 
	d="
M222.918335,330.338013 
	C226.325836,331.018768 229.797607,332.071259 233.852615,333.328552 
	C235.959442,333.014130 237.483032,332.494843 239.006607,331.975586 
	C239.448349,331.985413 239.890106,331.995239 241.049347,332.005615 
	C243.178909,331.683411 244.590973,331.360687 246.003036,331.037964 
	C246.770584,331.013000 247.538132,330.988068 248.688110,330.998291 
	C244.348175,332.561279 239.704559,334.442566 234.881241,335.517395 
	C230.082703,336.586700 225.743896,335.290558 222.918335,330.338013 
z"/>
<path fill="#F3D76A" opacity="1.000000" stroke="none" 
	d="
M345.056519,294.565613 
	C344.917999,294.955780 344.735992,294.964569 344.029968,294.745544 
	C342.162231,290.295074 339.820587,286.999390 334.941498,287.116974 
	C330.364594,287.227264 325.800110,287.852783 321.153961,288.168976 
	C321.077759,288.086365 320.924805,287.921722 320.924805,287.921722 
	C326.900024,285.538025 333.277679,284.190491 339.288788,286.295837 
	C341.808716,287.178406 343.140869,291.452179 345.056519,294.565613 
z"/>
<path fill="#FAD432" opacity="1.000000" stroke="none" 
	d="
M378.845825,193.562439 
	C377.266205,193.958252 375.457642,193.924103 373.655914,194.019394 
	C370.359192,194.193771 366.887695,194.140900 366.570038,197.682175 
	C363.154724,198.155380 360.392090,198.538147 357.284821,198.932190 
	C358.730652,194.600403 362.792114,193.614777 366.665131,193.122452 
	C370.583832,192.624298 374.629730,193.126740 378.845825,193.562439 
z"/>
<path fill="#F3D55C" opacity="1.000000" stroke="none" 
	d="
M356.604858,199.064377 
	C356.636719,203.423035 355.643585,208.017029 356.210144,212.409836 
	C356.649567,215.816696 359.037537,218.972244 360.724670,222.526093 
	C359.087463,221.535599 356.317902,220.632202 355.654358,218.914993 
	C353.136536,212.399109 352.398529,205.662582 356.604858,199.064377 
z"/>
<path fill="#F3D55C" opacity="1.000000" stroke="none" 
	d="
M385.929077,209.043900 
	C385.616669,206.271866 385.304291,203.499847 385.007080,200.300171 
	C389.519989,206.993896 387.242645,216.644806 379.370667,221.968811 
	C378.940491,221.937805 378.781158,221.771225 378.867615,221.489334 
	C379.335907,220.509247 379.717773,219.811050 380.389252,218.906830 
	C382.126221,215.803986 383.573578,212.907166 385.020905,210.010345 
	C385.020905,210.010345 385.003174,209.996582 385.211761,209.899857 
	C385.688080,209.615799 385.857635,209.362717 385.929077,209.043900 
z"/>
<path fill="#D2B8B3" opacity="1.000000" stroke="none" 
	d="
M253.475815,279.819946 
	C253.092102,275.858795 252.944305,271.699768 253.057709,267.547852 
	C253.131546,264.844360 252.296371,263.793182 249.229889,264.859924 
	C250.250977,263.601044 251.655777,262.356415 253.399033,261.055969 
	C253.765869,267.208496 253.794220,273.416779 253.475815,279.819946 
z"/>
<path fill="#ECD153" opacity="1.000000" stroke="none" 
	d="
M267.607361,213.133530 
	C268.648529,220.032318 269.331879,227.118683 269.989685,234.623840 
	C264.024628,229.602646 266.083069,222.686111 266.506073,216.088974 
	C266.566010,215.154297 266.992615,214.243149 267.607361,213.133530 
z"/>
<path fill="#FBD51A" opacity="1.000000" stroke="none" 
	d="
M253.898224,221.981781 
	C251.746109,222.488647 249.593994,222.995529 247.377747,222.947525 
	C252.213196,219.093155 247.959091,216.103485 246.995789,213.002441 
	C246.995789,213.002441 247.044235,212.938614 247.431061,212.933228 
	C249.235321,213.270416 250.652756,213.612976 252.070190,213.955536 
	C252.070190,213.955536 252.001450,213.992966 251.981506,214.330536 
	C252.590591,216.188339 253.219620,217.708557 253.848663,219.228775 
	C253.848663,219.228775 253.980118,219.477463 253.951385,219.989746 
	C253.914505,220.995285 253.906372,221.488541 253.898224,221.981781 
z"/>
<path fill="#F5D74C" opacity="1.000000" stroke="none" 
	d="
M254.357025,324.975494 
	C253.868134,320.452972 253.904755,315.722382 253.555618,311.020477 
	C253.371429,308.540192 252.514420,306.109863 252.004791,303.297913 
	C256.851746,308.635986 256.267792,315.305817 255.454193,322.001282 
	C255.339737,322.943054 254.972519,323.854095 254.357025,324.975494 
z"/>
<path fill="#F3D351" opacity="1.000000" stroke="none" 
	d="
M341.023407,208.245026 
	C341.348572,206.549240 341.685059,205.101410 342.046082,203.273285 
	C343.662231,210.778305 346.283203,218.768951 339.386658,225.943130 
	C340.024841,222.650131 341.000977,219.234344 341.985474,215.011978 
	C341.677277,212.466705 341.360718,210.728012 341.044159,208.989319 
	C341.044159,208.989319 341.034760,208.492981 341.023407,208.245026 
z"/>
<path fill="#F5D850" opacity="1.000000" stroke="none" 
	d="
M339.890839,200.590698 
	C331.875488,198.432205 324.311432,200.517792 316.383057,202.667938 
	C315.981903,202.256104 315.968353,202.068100 315.954773,201.880081 
	C323.646301,196.978836 331.813019,198.674988 339.890839,200.590698 
z"/>
<path fill="#F3D351" opacity="1.000000" stroke="none" 
	d="
M318.499329,230.913788 
	C324.792084,229.231216 331.530151,227.613205 338.667084,226.021545 
	C335.104523,231.058365 329.057953,229.659714 323.888855,230.904953 
	C322.325592,231.281555 320.597290,230.973022 318.499329,230.913788 
z"/>
<path fill="#F3D55C" opacity="1.000000" stroke="none" 
	d="
M273.032135,326.356506 
	C279.620483,325.324036 286.398224,324.643768 293.620178,324.002625 
	C287.342712,326.696625 280.621429,329.354431 273.032135,326.356506 
z"/>
<path fill="#EED65E" opacity="1.000000" stroke="none" 
	d="
M313.931152,314.042114 
	C310.626129,307.913727 311.832764,301.604675 313.602905,295.156006 
	C314.025513,295.022003 314.161713,295.149445 314.119019,295.601685 
	C314.075867,302.016266 314.075409,307.978607 314.040161,313.967896 
	C314.005341,313.994812 313.931152,314.042114 313.931152,314.042114 
z"/>
<path fill="#ECD153" opacity="1.000000" stroke="none" 
	d="
M285.119781,205.127167 
	C283.809479,205.629196 282.516174,206.182663 281.185516,206.623230 
	C277.702759,207.776321 274.203674,208.880127 270.325623,209.988190 
	C272.971954,204.782303 278.631836,205.752029 283.787384,204.439514 
	C284.552307,204.817139 284.819092,204.997253 285.119781,205.127167 
z"/>
<path fill="#F3D55C" opacity="1.000000" stroke="none" 
	d="
M368.383942,223.898987 
	C369.699219,222.927689 371.455048,222.027878 373.826202,221.373932 
	C375.888062,221.670258 377.334625,221.720734 378.781158,221.771210 
	C378.781158,221.771225 378.940491,221.937805 379.020020,222.021210 
	C375.674530,222.726562 372.249512,223.348511 368.383942,223.898987 
z"/>
<path fill="#EED567" opacity="1.000000" stroke="none" 
	d="
M299.907562,216.554901 
	C298.550537,213.868973 297.263184,210.793716 296.007812,207.325317 
	C297.352295,210.009979 298.664764,213.087753 299.907562,216.554901 
z"/>
<path fill="#EED65E" opacity="1.000000" stroke="none" 
	d="
M311.595001,208.160843 
	C311.982300,213.348541 311.990051,218.753815 311.977783,224.633270 
	C311.710297,219.531113 311.462891,213.954773 311.595001,208.160843 
z"/>
<path fill="#EED65E" opacity="1.000000" stroke="none" 
	d="
M253.938141,222.432953 
	C253.906372,221.488541 253.914505,220.995285 253.942841,220.130142 
	C254.226089,223.754715 254.489166,227.751205 254.309906,231.807861 
	C253.904404,228.873413 253.941223,225.878769 253.938141,222.432953 
z"/>
<path fill="#F5D74C" opacity="1.000000" stroke="none" 
	d="
M222.630676,310.091675 
	C222.598846,311.558960 222.236603,313.175385 221.522125,314.885040 
	C221.546692,313.399139 221.923477,311.819946 222.630676,310.091675 
z"/>
<path fill="#EED65E" opacity="1.000000" stroke="none" 
	d="
M313.615723,204.059906 
	C313.524780,205.264603 313.098053,206.579102 312.304199,207.938385 
	C312.384705,206.712021 312.832306,205.440857 313.615723,204.059906 
z"/>
<path fill="#EED65E" opacity="1.000000" stroke="none" 
	d="
M253.917267,218.841949 
	C253.219620,217.708557 252.590591,216.188339 252.005615,214.299698 
	C252.695068,215.439224 253.340469,216.947189 253.917267,218.841949 
z"/>
<path fill="#EED567" opacity="1.000000" stroke="none" 
	d="
M285.520203,205.113556 
	C284.819092,204.997253 284.552307,204.817139 284.182922,204.388367 
	C286.079529,204.136292 288.112732,204.082626 290.439392,204.292816 
	C290.507874,204.773911 290.248871,204.937134 289.955841,205.046326 
	C288.610779,205.064209 287.265717,205.082077 285.520203,205.113556 
z"/>
<path fill="#EED65E" opacity="1.000000" stroke="none" 
	d="
M251.934708,213.614349 
	C250.652756,213.612976 249.235321,213.270416 247.453735,212.900208 
	C247.089584,212.872574 247.097290,212.524719 247.117767,212.351746 
	C248.691910,212.543579 250.245575,212.908371 251.934708,213.614349 
z"/>
<path fill="#F5D850" opacity="1.000000" stroke="none" 
	d="
M315.939880,317.058350 
	C315.297089,316.269165 314.654266,315.480011 313.971313,314.366455 
	C313.931152,314.042114 314.005341,313.994812 314.367401,314.043793 
	C315.211487,315.019806 315.693512,315.946808 316.115295,316.918274 
	C316.055054,316.962708 315.939880,317.058350 315.939880,317.058350 
z"/>
<path fill="#ECD153" opacity="1.000000" stroke="none" 
	d="
M269.663696,210.056961 
	C269.530975,210.928696 269.090118,211.917908 268.293854,212.938751 
	C268.410797,212.038391 268.883179,211.106415 269.663696,210.056961 
z"/>
<path fill="#F3D76A" opacity="1.000000" stroke="none" 
	d="
M317.915344,289.922119 
	C318.698914,289.275055 319.482513,288.627960 320.595459,287.951294 
	C320.924805,287.921722 321.077759,288.086365 321.030701,288.471344 
	C320.032074,289.287994 319.080505,289.719635 318.079346,290.090424 
	C318.029816,290.029541 317.915344,289.922119 317.915344,289.922119 
z"/>
<path fill="#EED567" opacity="1.000000" stroke="none" 
	d="
M295.966705,206.644226 
	C295.192474,206.817856 294.317047,206.678177 293.226562,206.016510 
	C293.030090,205.307281 293.048645,205.120056 293.067230,204.932846 
	C294.000000,205.398880 294.932739,205.864899 295.966705,206.644226 
z"/>
<path fill="#EED65E" opacity="1.000000" stroke="none" 
	d="
M313.957703,294.958008 
	C314.363739,293.985352 314.837646,293.076721 315.688904,292.107788 
	C316.066284,292.047516 316.224335,292.167786 316.164673,292.494019 
	C315.457245,293.596619 314.809479,294.373016 314.161713,295.149445 
	C314.161713,295.149445 314.025513,295.022003 313.957703,294.958008 
z"/>
<path fill="#F3D55C" opacity="1.000000" stroke="none" 
	d="
M249.384644,331.044434 
	C249.503204,330.205627 249.996033,329.330322 250.737625,328.299377 
	C250.577209,329.098480 250.168045,330.053253 249.384644,331.044434 
z"/>
<path fill="#ECD153" opacity="1.000000" stroke="none" 
	d="
M293.050079,204.954559 
	C293.048645,205.120056 293.030090,205.307281 292.987335,205.776276 
	C292.116425,205.874542 291.269714,205.691040 290.189392,205.276947 
	C290.248871,204.937134 290.507874,204.773911 290.869965,204.370972 
	C291.177795,204.143250 291.348511,204.101212 291.910187,204.304352 
	C292.528137,204.750458 292.789093,204.885956 293.084076,204.956009 
	C293.084076,204.956009 293.032928,204.976273 293.050079,204.954559 
z"/>
<path fill="#F3D55C" opacity="1.000000" stroke="none" 
	d="
M295.352936,323.046631 
	C295.158630,322.524384 295.276581,321.962158 295.614868,321.205688 
	C295.778534,321.676544 295.721863,322.341614 295.352936,323.046631 
z"/>
<path fill="#F5D74C" opacity="1.000000" stroke="none" 
	d="
M251.941269,302.652527 
	C251.496964,302.832031 250.932266,302.710541 250.163574,302.372375 
	C250.580017,302.220978 251.200439,302.286255 251.941269,302.652527 
z"/>
<path fill="#F5D850" opacity="1.000000" stroke="none" 
	d="
M316.986938,318.005676 
	C316.655914,317.892639 316.374207,317.718872 316.016174,317.301697 
	C315.939880,317.058350 316.055054,316.962708 316.306702,317.039734 
	C316.798859,317.309479 316.988739,317.543274 317.127960,317.818176 
	C317.127960,317.818176 317.036285,317.944977 316.986938,318.005676 
z"/>
<path fill="#F3D55C" opacity="1.000000" stroke="none" 
	d="
M294.285645,324.006653 
	C294.206573,323.780701 294.396179,323.489197 294.837769,323.106628 
	C294.911346,323.324097 294.732849,323.632599 294.285645,324.006653 
z"/>
<path fill="#F3D55C" opacity="1.000000" stroke="none" 
	d="
M271.135681,325.297058 
	C271.411591,325.135406 271.617493,325.284058 271.876862,325.658325 
	C271.684387,325.733215 271.396179,325.641022 271.135681,325.297058 
z"/>
<path fill="#ECD153" opacity="1.000000" stroke="none" 
	d="
M270.999176,236.295471 
	C271.263885,236.060043 271.540100,236.202271 271.895752,236.648239 
	C271.709137,236.751343 271.387665,236.658386 270.999176,236.295471 
z"/>
<path fill="#EED65E" opacity="1.000000" stroke="none" 
	d="
M315.990356,291.983490 
	C316.084198,291.634766 316.253937,291.350067 316.725006,291.045410 
	C317.026337,291.025421 317.140991,291.139771 317.026550,291.342926 
	C316.721161,291.795715 316.491913,292.002960 316.224335,292.167786 
	C316.224335,292.167786 316.066284,292.047516 315.990356,291.983490 
z"/>
<path fill="#EED65E" opacity="1.000000" stroke="none" 
	d="
M316.969574,290.967712 
	C317.084198,290.627808 317.255585,290.345642 317.671143,289.992798 
	C317.915344,289.922119 318.029816,290.029541 317.957123,290.293701 
	C317.686554,290.815643 317.438751,291.009613 317.140991,291.139771 
	C317.140991,291.139771 317.026337,291.025421 316.969574,290.967712 
z"/>
<path fill="#ECD153" opacity="1.000000" stroke="none" 
	d="
M270.013306,235.283417 
	C270.243927,235.200867 270.537689,235.380020 270.903076,235.815796 
	C270.675262,235.896637 270.375854,235.720886 270.013306,235.283417 
z"/>
<path fill="#EED567" opacity="1.000000" stroke="none" 
	d="
M292.998352,204.713989 
	C292.789093,204.885956 292.528137,204.750458 292.164490,204.374237 
	C292.322754,204.289978 292.617676,204.380981 292.998352,204.713989 
z"/>
<path fill="#EED65E" opacity="1.000000" stroke="none" 
	d="
M314.702759,202.982986 
	C314.805756,203.234421 314.638367,203.540726 314.206879,203.908783 
	C314.105988,203.659622 314.269165,203.348740 314.702759,202.982986 
z"/>
<path fill="#F3D351" opacity="1.000000" stroke="none" 
	d="
M342.030945,202.703003 
	C341.808533,202.902359 341.539246,202.770020 341.184296,202.360718 
	C341.349457,202.269760 341.644562,202.365631 342.030945,202.703003 
z"/>
<path fill="#EED65E" opacity="1.000000" stroke="none" 
	d="
M315.696045,201.961182 
	C315.968353,202.068100 315.981903,202.256104 316.000305,202.727448 
	C315.826294,203.012817 315.647522,203.014832 315.201904,202.985199 
	C315.102539,202.649811 315.269928,202.346054 315.696045,201.961182 
z"/>
<path fill="#FCD506" opacity="1.000000" stroke="none" 
	d="
M290.964081,300.849915 
	C289.577454,299.768768 288.255310,299.038971 287.004761,298.348694 
	C291.227661,295.840027 291.791016,296.218384 294.289703,304.432159 
	C293.202667,303.355225 292.115601,302.278259 290.964081,300.849915 
z"/>
<path fill="#FAD432" opacity="1.000000" stroke="none" 
	d="
M245.940979,330.691742 
	C244.590973,331.360687 243.178909,331.683411 241.380615,331.995575 
	C241.032532,330.544830 241.051697,329.103729 241.124298,327.665283 
	C241.139252,327.369263 241.353592,327.083313 241.648071,326.384277 
	C243.121094,327.763428 244.500000,329.054474 245.940979,330.691742 
z"/>
<path fill="#FAD432" opacity="1.000000" stroke="none" 
	d="
M238.957092,331.622437 
	C237.483032,332.494843 235.959442,333.014130 234.201263,333.291931 
	C236.285248,328.261444 236.285248,328.261444 238.957092,331.622437 
z"/>
<path fill="#FBD60E" opacity="1.000000" stroke="none" 
	d="
M288.369751,229.393463 
	C287.014282,229.408157 285.807556,229.381332 284.843567,228.884003 
	C280.369598,226.575867 277.032928,228.700623 273.649811,231.530869 
	C273.394684,226.734940 278.066528,226.320160 280.344543,225.873581 
	C282.798981,225.392410 285.843292,227.920181 288.369751,229.393463 
z"/>
<path fill="#FAD432" opacity="1.000000" stroke="none" 
	d="
M246.629272,213.013611 
	C247.959091,216.103485 252.213196,219.093155 247.156189,222.695709 
	C244.635284,220.656906 244.186707,214.577942 246.629272,213.013611 
z"/>
<path fill="#FAD432" opacity="1.000000" stroke="none" 
	d="
M232.972382,219.986786 
	C231.731537,219.621597 230.490677,219.256393 229.249832,218.891205 
	C229.273407,218.434052 229.296967,217.976913 229.320526,217.519760 
	C232.673431,219.410782 233.933807,211.684052 237.639343,216.813690 
	C235.916748,218.182663 234.444565,219.084717 232.972382,219.986786 
z"/>
<path fill="#FCD506" opacity="1.000000" stroke="none" 
	d="
M232.986038,220.331085 
	C234.444565,219.084717 235.916748,218.182663 237.697815,217.145996 
	C238.454895,217.008667 238.903076,217.005936 239.663300,217.320587 
	C239.647156,218.420715 239.318954,219.203476 238.990753,219.986221 
	C234.474747,223.089828 234.474747,223.089828 232.986038,220.331085 
z"/>
<path fill="#FAD432" opacity="1.000000" stroke="none" 
	d="
M239.051086,220.313538 
	C239.318954,219.203476 239.647156,218.420715 239.999496,217.318222 
	C240.944702,217.942276 241.865768,218.886078 242.786835,219.829895 
	C241.561691,220.100220 240.336548,220.370544 239.051086,220.313538 
z"/>
<path fill="#FBD51A" opacity="1.000000" stroke="none" 
	d="
M248.518677,226.660126 
	C249.239838,227.233612 249.742844,228.050476 250.245865,228.867340 
	C249.675354,229.065552 249.104843,229.263779 248.534317,229.461990 
	C248.456390,228.609161 248.378464,227.756332 248.518677,226.660126 
z"/>
<path fill="#FCD506" opacity="1.000000" stroke="none" 
	d="
M331.156189,204.761871 
	C329.382874,205.413651 327.770233,205.830887 326.064392,206.605164 
	C324.855499,206.861511 323.739868,206.760834 321.938202,206.598236 
	C324.723267,203.570404 327.004700,201.121094 330.983246,202.606964 
	C331.290649,202.721771 331.214691,203.863113 331.156189,204.761871 
z"/>
<path fill="#FCD52B" opacity="1.000000" stroke="none" 
	d="
M340.728455,209.158997 
	C341.360718,210.728012 341.677277,212.466705 341.976196,214.608978 
	C338.264221,213.982529 338.140259,211.981461 340.728455,209.158997 
z"/>
<path fill="#FCD52B" opacity="1.000000" stroke="none" 
	d="
M373.006104,216.999390 
	C371.074005,216.318680 369.066284,215.791916 367.240173,214.895340 
	C366.257080,214.412659 365.585205,213.296066 364.721130,212.412506 
	C369.375458,211.884415 373.270660,211.442444 377.583557,211.000854 
	C378.001221,211.001221 378.000000,211.000000 378.000549,211.395905 
	C377.991211,212.846436 377.981323,213.901077 377.579376,214.961670 
	C375.793579,215.644882 374.399841,216.322128 373.006104,216.999390 
z"/>
<path fill="#FBD60E" opacity="1.000000" stroke="none" 
	d="
M373.384888,217.000854 
	C374.399841,216.322128 375.793579,215.644882 377.836609,215.176544 
	C379.023773,216.627930 379.561707,217.870377 380.099609,219.112839 
	C379.717773,219.811050 379.335907,220.509247 378.867615,221.489319 
	C377.334625,221.720734 375.888062,221.670258 374.187927,221.352585 
	C375.140869,220.436981 376.347382,219.788574 378.658081,218.546722 
	C376.422791,217.841400 375.093231,217.421860 373.384888,217.000854 
z"/>
<path fill="#FAD432" opacity="1.000000" stroke="none" 
	d="
M359.795227,202.569244 
	C360.647583,201.845795 361.798737,200.875153 362.876221,200.951004 
	C364.143616,201.040222 365.347107,202.037155 366.578308,202.640472 
	C365.740997,203.218643 364.860626,204.322845 364.075867,204.258591 
	C362.706665,204.146484 361.396393,203.315018 359.795227,202.569244 
z"/>
<path fill="#D2B8B3" opacity="1.000000" stroke="none" 
	d="
M245.570648,269.032745 
	C245.557861,270.809540 245.773529,273.061157 244.844360,274.638214 
	C240.200211,282.520630 239.007767,283.039795 233.524811,277.063568 
	C231.310623,274.650177 228.752808,272.552094 226.344208,269.948364 
	C230.617630,272.548828 234.898254,275.511383 239.568527,278.743652 
	C241.305405,275.835876 243.288315,272.516205 245.570648,269.032745 
z"/>
<path fill="#D2B8B3" opacity="1.000000" stroke="none" 
	d="
M248.541565,264.996521 
	C248.090240,266.208923 247.339996,267.544525 246.217285,268.878784 
	C246.644089,267.624908 247.443375,266.372314 248.541565,264.996521 
z"/>
<path fill="#FBD51A" opacity="1.000000" stroke="none" 
	d="
M380.389252,218.906830 
	C379.561707,217.870377 379.023773,216.627930 378.228638,215.170593 
	C377.981323,213.901077 377.991211,212.846436 377.999939,211.395294 
	C380.079193,210.699997 382.159576,210.401215 384.630432,210.056381 
	C383.573578,212.907166 382.126221,215.803986 380.389252,218.906830 
z"/>
<path fill="#FBD51A" opacity="1.000000" stroke="none" 
	d="
M385.726746,209.154388 
	C385.857635,209.362717 385.688080,209.615799 385.212646,209.910309 
	C385.103424,209.715042 385.276581,209.464172 385.726746,209.154388 
z"/>
<path fill="#FCD422" opacity="1.000000" stroke="none" 
	d="
M317.026550,291.342926 
	C317.438751,291.009613 317.686554,290.815643 318.006653,290.354553 
	C319.080505,289.719635 320.032074,289.287994 321.106934,288.553955 
	C325.800110,287.852783 330.364594,287.227264 334.941498,287.116974 
	C339.820587,286.999390 342.162231,290.295074 343.756836,294.756042 
	C343.327789,299.739227 343.003510,304.569672 341.887085,309.209473 
	C340.078644,316.725067 333.053741,316.513000 327.424957,317.846191 
	C324.455658,318.549469 321.173187,317.930664 317.580048,317.863464 
	C316.988739,317.543274 316.798859,317.309479 316.366943,316.995300 
	C315.693512,315.946808 315.211487,315.019806 314.402222,314.016876 
	C314.075409,307.978607 314.075867,302.016266 314.119019,295.601685 
	C314.809479,294.373016 315.457245,293.596619 316.164673,292.494019 
	C316.491913,292.002960 316.721161,291.795715 317.026550,291.342926 
z"/>
</svg>